<svg xmlns="http://www.w3.org/2000/svg" xmlns:xlink="http://www.w3.org/1999/xlink" width="1080" zoomAndPan="magnify" viewBox="0 0 810 809.999993" height="1080" preserveAspectRatio="xMidYMid meet" version="1.0"><defs><clipPath id="1b3062904f"><path d="M 14.371094 14.371094 L 795.628906 14.371094 L 795.628906 795.628906 L 14.371094 795.628906 Z M 14.371094 14.371094 " clip-rule="nonzero"/></clipPath><clipPath id="a598c38d0d"><path d="M 405 14.371094 C 189.261719 14.371094 14.371094 189.261719 14.371094 405 C 14.371094 620.738281 189.261719 795.628906 405 795.628906 C 620.738281 795.628906 795.628906 620.738281 795.628906 405 C 795.628906 189.261719 620.738281 14.371094 405 14.371094 Z M 405 14.371094 " clip-rule="nonzero"/></clipPath><clipPath id="f63d130287"><path d="M 240.445312 243.078125 L 569 243.078125 L 569 567 L 240.445312 567 Z M 240.445312 243.078125 " clip-rule="nonzero"/></clipPath></defs><g clip-path="url(#1b3062904f)"><g clip-path="url(#a598c38d0d)"><path fill="#68ff00" d="M 14.371094 14.371094 L 795.628906 14.371094 L 795.628906 795.628906 L 14.371094 795.628906 Z M 14.371094 14.371094 " fill-opacity="1" fill-rule="nonzero"/></g></g><g clip-path="url(#f63d130287)"><path fill="#000000" d="M 561.488281 387.019531 C 570.449219 395.972656 570.449219 410.492188 561.488281 419.445312 L 420.550781 560.285156 C 416.070312 564.761719 410.195312 567 404.316406 567 C 398.460938 567 392.582031 564.761719 388.101562 560.285156 L 247.164062 419.445312 C 238.203125 410.492188 238.203125 395.972656 247.164062 387.019531 C 256.125 378.066406 270.65625 378.066406 279.636719 387.019531 L 404.316406 511.632812 L 529.015625 387.019531 C 538 378.066406 552.527344 378.066406 561.488281 387.019531 Z M 388.101562 423.058594 C 392.582031 427.539062 398.460938 429.777344 404.316406 429.777344 C 410.195312 429.777344 416.070312 427.539062 420.550781 423.058594 L 561.488281 282.246094 C 570.449219 273.269531 570.449219 258.75 561.488281 249.796875 C 552.527344 240.839844 538 240.839844 529.015625 249.796875 L 404.316406 374.40625 L 279.636719 249.796875 C 270.65625 240.839844 256.125 240.839844 247.164062 249.796875 C 238.203125 258.75 238.203125 273.269531 247.164062 282.246094 Z M 388.101562 423.058594 " fill-opacity="1" fill-rule="nonzero"/></g></svg>