<svg xmlns="http://www.w3.org/2000/svg" xmlns:xlink="http://www.w3.org/1999/xlink" width="500" zoomAndPan="magnify" viewBox="0 0 375 374.999991" height="500" preserveAspectRatio="xMidYMid meet" version="1.0"><defs><clipPath id="29dde64196"><path d="M 5 6 L 369 6 L 369 370 L 5 370 Z M 5 6 " clip-rule="nonzero"/></clipPath><clipPath id="73d88af2ab"><path d="M 208.191406 -68.339844 L 443.335938 208.199219 L 166.796875 443.34375 L -68.347656 166.804688 Z M 208.191406 -68.339844 " clip-rule="nonzero"/></clipPath><clipPath id="2ced90fa64"><path d="M 325.765625 69.929688 C 260.832031 -6.433594 146.285156 -15.699219 69.921875 49.234375 C -6.441406 114.164062 -15.707031 228.710938 49.226562 305.074219 C 114.160156 381.4375 228.703125 390.703125 305.066406 325.769531 C 381.433594 260.835938 390.699219 146.292969 325.765625 69.929688 Z M 325.765625 69.929688 " clip-rule="nonzero"/></clipPath><clipPath id="d200e322cf"><path d="M 110.757812 111.984375 L 264 111.984375 L 264 262.695312 L 110.757812 262.695312 Z M 110.757812 111.984375 " clip-rule="nonzero"/></clipPath></defs><g clip-path="url(#29dde64196)"><g clip-path="url(#73d88af2ab)"><g clip-path="url(#2ced90fa64)"><path fill="#5e17eb" d="M 208.191406 -68.339844 L 443.335938 208.199219 L 166.796875 443.34375 L -68.347656 166.804688 Z M 208.191406 -68.339844 " fill-opacity="1" fill-rule="nonzero"/></g></g></g><g clip-path="url(#d200e322cf)"><path fill="#ffffff" d="M 260.375 179.109375 C 264.550781 183.289062 264.550781 190.058594 260.375 194.234375 L 194.691406 259.914062 C 192.605469 262.003906 189.867188 263.046875 187.125 263.046875 C 184.398438 263.046875 181.65625 262.003906 179.570312 259.914062 L 113.890625 194.234375 C 109.710938 190.058594 109.710938 183.289062 113.890625 179.109375 C 118.066406 174.933594 124.835938 174.933594 129.023438 179.109375 L 187.125 237.226562 L 245.242188 179.109375 C 249.425781 174.933594 256.199219 174.933594 260.375 179.109375 Z M 179.570312 195.917969 C 181.65625 198.007812 184.398438 199.050781 187.125 199.050781 C 189.867188 199.050781 192.605469 198.007812 194.691406 195.917969 L 260.375 130.25 C 264.550781 126.0625 264.550781 119.292969 260.375 115.113281 C 256.199219 110.9375 249.425781 110.9375 245.242188 115.113281 L 187.125 173.230469 L 129.023438 115.113281 C 124.835938 110.9375 118.066406 110.9375 113.890625 115.113281 C 109.710938 119.292969 109.710938 126.0625 113.890625 130.25 Z M 179.570312 195.917969 " fill-opacity="1" fill-rule="nonzero"/></g></svg>