<svg xmlns="http://www.w3.org/2000/svg" xmlns:xlink="http://www.w3.org/1999/xlink" width="1080" zoomAndPan="magnify" viewBox="0 0 810 809.999993" height="1080" preserveAspectRatio="xMidYMid meet" version="1.0"><defs><clipPath id="513b2bbe39"><path d="M 106.363281 88 L 703 88 L 703 722 L 106.363281 722 Z M 106.363281 88 " clip-rule="nonzero"/></clipPath></defs><g clip-path="url(#513b2bbe39)"><path fill="#e23237" d="M 106.363281 193.402344 L 400.753906 88.5625 L 702.890625 191.78125 L 654.0625 581.351562 L 400.753906 721.558594 L 151.554688 583.171875 Z M 106.363281 193.402344 " fill-opacity="1" fill-rule="nonzero"/></g><path fill="#b52e31" d="M 702.890625 191.78125 L 400.753906 88.5625 L 400.753906 721.558594 L 654.0625 581.351562 Z M 702.890625 191.78125 " fill-opacity="1" fill-rule="nonzero"/><path fill="#ffffff" d="M 401.207031 162.542969 L 217.757812 570.828125 L 286.214844 569.441406 L 323.183594 477.183594 L 487.257812 477.183594 L 527.425781 570.15625 L 592.703125 571.539062 Z M 401.660156 293.613281 L 463.734375 423.320312 L 347.535156 423.320312 L 401.839844 293.613281 Z M 401.660156 293.613281 " fill-opacity="1" fill-rule="nonzero"/></svg>