<svg xmlns="http://www.w3.org/2000/svg" xmlns:xlink="http://www.w3.org/1999/xlink" width="1080" zoomAndPan="magnify" viewBox="0 0 810 809.999993" height="1080" preserveAspectRatio="xMidYMid meet" version="1.0"><defs><clipPath id="5a974614ea"><path d="M 81 81 L 740.25 81 L 740.25 740.25 L 81 740.25 Z M 81 81 " clip-rule="nonzero"/></clipPath></defs><g clip-path="url(#5a974614ea)"><path fill="#563d7c" d="M 81 655.242188 C 81 702.1875 119.058594 740.25 166.003906 740.25 L 655.238281 740.25 C 702.1875 740.25 740.246094 702.1875 740.246094 655.242188 L 740.246094 166.007812 C 740.246094 119.054688 702.1875 81 655.238281 81 L 166.003906 81 C 119.050781 81 80.996094 119.058594 80.996094 166.003906 L 80.996094 655.242188 Z M 81 655.242188 " fill-opacity="1" fill-rule="nonzero"/></g><path fill="#ffffff" d="M 354.382812 372.613281 L 354.382812 279.25 L 436.558594 279.25 C 444.386719 279.25 451.929688 279.902344 459.191406 281.207031 C 466.457031 282.511719 472.894531 284.839844 478.480469 288.195312 C 484.070312 291.550781 488.550781 296.210938 491.898438 302.171875 C 495.246094 308.136719 496.917969 315.777344 496.917969 325.09375 C 496.917969 341.867188 491.898438 353.972656 481.828125 361.4375 C 471.785156 368.882812 458.910156 372.613281 443.253906 372.613281 Z M 266.605469 211.046875 L 266.605469 610.203125 L 460.042969 610.203125 C 477.914062 610.203125 495.347656 607.960938 512.292969 603.480469 C 529.265625 599.027344 544.355469 592.125 557.589844 582.800781 C 570.828125 573.480469 581.335938 561.480469 589.164062 546.75 C 596.992188 532.019531 600.90625 514.613281 600.90625 494.472656 C 600.90625 469.519531 594.855469 448.171875 582.75 430.480469 C 570.621094 412.761719 552.285156 400.375 527.667969 393.292969 C 545.566406 384.71875 559.085938 373.722656 568.203125 360.304688 C 577.34375 346.890625 581.902344 330.125 581.902344 309.996094 C 581.902344 291.363281 578.835938 275.710938 572.683594 263.039062 C 566.527344 250.367188 557.875 240.210938 546.699219 232.570312 C 535.496094 224.929688 522.078125 219.433594 506.449219 216.078125 C 490.789062 212.722656 473.460938 211.046875 454.453125 211.046875 Z M 354.382812 542.011719 L 354.382812 432.4375 L 449.972656 432.4375 C 468.980469 432.4375 484.25 436.816406 495.8125 445.570312 C 507.375 454.324219 513.144531 468.953125 513.144531 489.453125 C 513.144531 499.882812 511.367188 508.457031 507.839844 515.179688 C 504.285156 521.875 499.546875 527.179688 493.570312 531.09375 C 487.625 535.007812 480.722656 537.8125 472.894531 539.488281 C 465.066406 541.160156 456.875 542.011719 448.300781 542.011719 Z M 354.382812 542.011719 " fill-opacity="1" fill-rule="nonzero"/></svg>