<svg xmlns="http://www.w3.org/2000/svg" xmlns:xlink="http://www.w3.org/1999/xlink" width="1080" zoomAndPan="magnify" viewBox="0 0 810 809.999993" height="1080" preserveAspectRatio="xMidYMid meet" version="1.0"><path fill="#ffffff" d="M 607.5 729 L 202.5 729 C 135.390625 729 81 674.609375 81 607.5 L 81 202.5 C 81 135.390625 135.390625 81 202.5 81 L 607.5 81 C 674.609375 81 729 135.390625 729 202.5 L 729 607.5 C 729 674.609375 674.609375 729 607.5 729 Z M 607.5 729 " fill-opacity="1" fill-rule="nonzero"/><path fill="#387eb8" d="M 268.128906 394.835938 L 301.582031 394.835938 L 301.582031 364.417969 L 268.128906 364.417969 Z M 268.128906 394.835938 " fill-opacity="1" fill-rule="nonzero"/><path fill="#007acc" d="M 562.707031 392 C 563.457031 390.722656 566.046875 385.234375 567 383.230469 L 560.277344 378.675781 L 560.277344 378.695312 C 552.988281 373.734375 536.179688 371.933594 523.261719 374.382812 C 521.578125 362.089844 514.796875 351.378906 502.441406 341.757812 L 495.355469 337 L 490.636719 344.167969 C 481.320312 358.40625 478.789062 381.875 488.773438 397.34375 C 484.359375 399.753906 475.714844 403.035156 464.273438 402.832031 L 244.234375 402.832031 C 239.820312 428.855469 247.171875 462.652344 266.511719 485.859375 C 285.28125 508.335938 313.429688 519.757812 350.242188 519.757812 C 429.929688 519.757812 488.894531 482.617188 516.496094 415.164062 C 527.308594 415.367188 550.71875 415.226562 562.707031 392 Z M 562.707031 392 " fill-opacity="1" fill-rule="nonzero"/><path fill="#387eb8" d="M 307.617188 364.417969 L 341.070312 364.417969 L 341.070312 394.835938 L 307.617188 394.835938 Z M 307.617188 364.417969 " fill-opacity="1" fill-rule="nonzero"/><path fill="#387eb8" d="M 347.164062 364.417969 L 380.617188 364.417969 L 380.617188 394.835938 L 347.164062 394.835938 Z M 347.164062 364.417969 " fill-opacity="1" fill-rule="nonzero"/><path fill="#387eb8" d="M 426.28125 364.417969 L 459.734375 364.417969 L 459.734375 394.835938 L 426.28125 394.835938 Z M 426.28125 364.417969 " fill-opacity="1" fill-rule="nonzero"/><path fill="#387eb8" d="M 307.617188 327.484375 L 341.070312 327.484375 L 341.070312 358.261719 L 307.617188 358.261719 Z M 307.617188 327.484375 " fill-opacity="1" fill-rule="nonzero"/><path fill="#387eb8" d="M 386.695312 364.480469 L 420.148438 364.480469 L 420.148438 394.894531 L 386.695312 394.894531 Z M 386.695312 364.480469 " fill-opacity="1" fill-rule="nonzero"/><path fill="#387eb8" d="M 386.695312 327.484375 L 420.148438 327.484375 L 420.148438 358.261719 L 386.695312 358.261719 Z M 386.695312 327.484375 " fill-opacity="1" fill-rule="nonzero"/><path fill="#387eb8" d="M 386.695312 290.242188 L 420.148438 290.242188 L 420.148438 321.328125 L 386.695312 321.328125 Z M 386.695312 290.242188 " fill-opacity="1" fill-rule="nonzero"/><path fill="#387eb8" d="M 347.164062 327.484375 L 380.617188 327.484375 L 380.617188 358.261719 L 347.164062 358.261719 Z M 347.164062 327.484375 " fill-opacity="1" fill-rule="nonzero"/></svg>