<svg xmlns="http://www.w3.org/2000/svg" xmlns:xlink="http://www.w3.org/1999/xlink" width="1080" zoomAndPan="magnify" viewBox="0 0 810 809.999993" height="1080" preserveAspectRatio="xMidYMid meet" version="1.0"><defs><clipPath id="f6ae635894"><path d="M 81 81 L 729 81 L 729 729 L 81 729 Z M 81 81 " clip-rule="nonzero"/></clipPath></defs><g clip-path="url(#f6ae635894)"><path fill="#f03c2e" d="M 716.769531 376.144531 L 433.855469 93.230469 C 432.890625 92.265625 431.878906 91.347656 430.824219 90.480469 C 429.765625 89.613281 428.671875 88.800781 427.535156 88.039062 C 426.398438 87.28125 425.226562 86.578125 424.023438 85.933594 C 422.816406 85.289062 421.582031 84.707031 420.320312 84.183594 C 419.058594 83.660156 417.773438 83.199219 416.464844 82.804688 C 415.15625 82.40625 413.832031 82.074219 412.492188 81.808594 C 411.152344 81.542969 409.800781 81.339844 408.441406 81.207031 C 407.082031 81.074219 405.71875 81.003906 404.351562 81.003906 C 402.984375 81.003906 401.621094 81.074219 400.261719 81.207031 C 398.902344 81.339844 397.550781 81.542969 396.210938 81.808594 C 394.871094 82.074219 393.546875 82.40625 392.238281 82.804688 C 390.929688 83.199219 389.644531 83.660156 388.382812 84.183594 C 387.121094 84.707031 385.886719 85.289062 384.683594 85.933594 C 383.476562 86.578125 382.304688 87.28125 381.171875 88.039062 C 380.035156 88.800781 378.9375 89.613281 377.882812 90.480469 C 376.824219 91.347656 375.8125 92.265625 374.847656 93.230469 L 316.121094 151.957031 L 390.644531 226.476562 C 407.976562 220.402344 427.820312 224.550781 441.632812 238.363281 C 443.269531 240 444.78125 241.746094 446.171875 243.597656 C 447.5625 245.445312 448.820312 247.382812 449.9375 249.410156 C 451.058594 251.4375 452.03125 253.53125 452.859375 255.691406 C 453.6875 257.855469 454.359375 260.066406 454.875 262.320312 C 455.394531 264.578125 455.75 266.859375 455.949219 269.164062 C 456.148438 271.472656 456.183594 273.78125 456.058594 276.09375 C 455.933594 278.402344 455.648438 280.695312 455.203125 282.96875 C 454.757812 285.238281 454.15625 287.46875 453.398438 289.65625 L 525.222656 361.484375 C 542.597656 355.488281 562.644531 359.355469 576.515625 373.269531 C 577.667969 374.417969 578.761719 375.621094 579.792969 376.878906 C 580.824219 378.136719 581.792969 379.441406 582.699219 380.792969 C 583.601562 382.148438 584.4375 383.542969 585.207031 384.976562 C 585.972656 386.410156 586.667969 387.878906 587.292969 389.382812 C 587.914062 390.886719 588.460938 392.414062 588.933594 393.972656 C 589.40625 395.53125 589.800781 397.105469 590.121094 398.703125 C 590.4375 400.296875 590.675781 401.90625 590.835938 403.523438 C 590.996094 405.144531 591.074219 406.765625 591.074219 408.394531 C 591.078125 410.019531 590.996094 411.644531 590.835938 413.261719 C 590.679688 414.882812 590.441406 416.492188 590.121094 418.085938 C 589.804688 419.683594 589.410156 421.257812 588.9375 422.816406 C 588.464844 424.371094 587.917969 425.902344 587.296875 427.40625 C 586.671875 428.910156 585.976562 430.378906 585.210938 431.8125 C 584.445312 433.25 583.609375 434.640625 582.703125 435.996094 C 581.800781 437.347656 580.832031 438.652344 579.800781 439.910156 C 578.765625 441.167969 577.675781 442.371094 576.523438 443.523438 C 575.375 444.671875 574.167969 445.765625 572.910156 446.796875 C 571.652344 447.828125 570.347656 448.796875 568.996094 449.699219 C 567.640625 450.601562 566.246094 451.4375 564.8125 452.207031 C 563.378906 452.972656 561.910156 453.667969 560.40625 454.289062 C 558.902344 454.910156 557.371094 455.457031 555.8125 455.929688 C 554.257812 456.402344 552.679688 456.796875 551.085938 457.113281 C 549.488281 457.429688 547.878906 457.667969 546.261719 457.828125 C 544.640625 457.984375 543.019531 458.066406 541.390625 458.0625 C 539.765625 458.0625 538.140625 457.984375 536.523438 457.824219 C 534.902344 457.664062 533.296875 457.421875 531.699219 457.105469 C 530.105469 456.789062 528.527344 456.390625 526.972656 455.917969 C 525.414062 455.445312 523.882812 454.898438 522.382812 454.273438 C 520.878906 453.652344 519.410156 452.953125 517.976562 452.1875 C 516.539062 451.417969 515.148438 450.582031 513.796875 449.679688 C 512.441406 448.773438 511.136719 447.804688 509.878906 446.773438 C 508.625 445.738281 507.421875 444.644531 506.269531 443.496094 C 491.691406 428.914062 488.085938 407.449219 495.457031 389.488281 L 428.46875 322.5 L 428.46875 498.777344 C 433.363281 501.199219 437.75 504.332031 441.632812 508.171875 C 442.78125 509.324219 443.875 510.527344 444.90625 511.785156 C 445.9375 513.042969 446.902344 514.347656 447.808594 515.699219 C 448.710938 517.050781 449.546875 518.445312 450.3125 519.878906 C 451.078125 521.3125 451.773438 522.78125 452.398438 524.285156 C 453.019531 525.785156 453.566406 527.316406 454.039062 528.871094 C 454.511719 530.429688 454.90625 532.003906 455.222656 533.597656 C 455.539062 535.195312 455.777344 536.800781 455.9375 538.417969 C 456.097656 540.039062 456.175781 541.660156 456.175781 543.289062 C 456.175781 544.914062 456.097656 546.535156 455.9375 548.15625 C 455.777344 549.773438 455.539062 551.378906 455.222656 552.976562 C 454.90625 554.570312 454.511719 556.144531 454.039062 557.703125 C 453.566406 559.257812 453.019531 560.789062 452.398438 562.289062 C 451.773438 563.792969 451.078125 565.261719 450.3125 566.695312 C 449.546875 568.128906 448.710938 569.523438 447.808594 570.875 C 446.902344 572.226562 445.9375 573.53125 444.90625 574.789062 C 443.875 576.046875 442.78125 577.25 441.632812 578.402344 C 440.480469 579.550781 439.277344 580.640625 438.019531 581.671875 C 436.765625 582.707031 435.460938 583.671875 434.105469 584.578125 C 432.753906 585.480469 431.363281 586.316406 429.925781 587.082031 C 428.492188 587.847656 427.023438 588.542969 425.523438 589.164062 C 424.019531 589.789062 422.488281 590.335938 420.933594 590.808594 C 419.378906 591.277344 417.800781 591.671875 416.207031 591.992188 C 414.613281 592.308594 413.003906 592.546875 411.386719 592.707031 C 409.765625 592.867188 408.144531 592.945312 406.519531 592.945312 C 404.890625 592.945312 403.269531 592.867188 401.652344 592.707031 C 400.03125 592.546875 398.425781 592.308594 396.832031 591.992188 C 395.234375 591.671875 393.660156 591.277344 392.105469 590.808594 C 390.546875 590.335938 389.019531 589.789062 387.515625 589.164062 C 386.011719 588.542969 384.542969 587.847656 383.109375 587.082031 C 381.675781 586.316406 380.28125 585.480469 378.929688 584.578125 C 377.578125 583.671875 376.273438 582.707031 375.015625 581.671875 C 373.757812 580.640625 372.554688 579.550781 371.40625 578.402344 C 370.253906 577.25 369.160156 576.046875 368.128906 574.792969 C 367.09375 573.535156 366.125 572.230469 365.222656 570.878906 C 364.316406 569.527344 363.480469 568.132812 362.714844 566.699219 C 361.945312 565.265625 361.25 563.796875 360.628906 562.292969 C 360.003906 560.792969 359.457031 559.261719 358.984375 557.707031 C 358.511719 556.148438 358.113281 554.574219 357.796875 552.976562 C 357.480469 551.382812 357.242188 549.773438 357.082031 548.15625 C 356.921875 546.535156 356.84375 544.914062 356.84375 543.289062 C 356.84375 541.660156 356.921875 540.039062 357.082031 538.417969 C 357.242188 536.800781 357.480469 535.191406 357.796875 533.597656 C 358.113281 532 358.511719 530.425781 358.984375 528.871094 C 359.457031 527.3125 360.003906 525.78125 360.628906 524.28125 C 361.25 522.777344 361.945312 521.308594 362.714844 519.875 C 363.480469 518.441406 364.316406 517.046875 365.222656 515.695312 C 366.125 514.34375 367.09375 513.039062 368.128906 511.78125 C 369.160156 510.527344 370.253906 509.324219 371.40625 508.171875 C 376.203125 503.394531 381.53125 499.769531 387.664062 497.339844 L 387.664062 319.421875 C 381.753906 316.992188 376.203125 313.410156 371.40625 308.589844 C 369.671875 306.859375 368.074219 305.007812 366.617188 303.039062 C 365.15625 301.074219 363.847656 299.007812 362.695312 296.847656 C 361.542969 294.683594 360.554688 292.449219 359.730469 290.140625 C 358.910156 287.832031 358.261719 285.476562 357.789062 283.074219 C 357.3125 280.667969 357.019531 278.242188 356.90625 275.796875 C 356.792969 273.347656 356.859375 270.90625 357.105469 268.46875 C 357.355469 266.03125 357.78125 263.625 358.386719 261.25 C 358.988281 258.875 359.765625 256.558594 360.714844 254.300781 L 287.207031 180.832031 L 93.210938 374.625 C 92.242188 375.589844 91.324219 376.601562 90.457031 377.660156 C 89.589844 378.714844 88.777344 379.8125 88.015625 380.949219 C 87.253906 382.085938 86.554688 383.257812 85.90625 384.460938 C 85.261719 385.667969 84.679688 386.902344 84.15625 388.164062 C 83.632812 389.425781 83.171875 390.714844 82.773438 392.019531 C 82.378906 393.328125 82.046875 394.652344 81.777344 395.996094 C 81.511719 397.335938 81.3125 398.6875 81.175781 400.046875 C 81.042969 401.40625 80.976562 402.773438 80.976562 404.140625 C 80.976562 405.507812 81.042969 406.871094 81.175781 408.230469 C 81.3125 409.59375 81.511719 410.941406 81.777344 412.285156 C 82.046875 413.625 82.378906 414.949219 82.773438 416.257812 C 83.171875 417.566406 83.632812 418.851562 84.15625 420.113281 C 84.679688 421.378906 85.261719 422.613281 85.90625 423.816406 C 86.554688 425.023438 87.253906 426.195312 88.015625 427.332031 C 88.777344 428.46875 89.589844 429.5625 90.457031 430.621094 C 91.324219 431.675781 92.242188 432.6875 93.210938 433.652344 L 376.144531 716.546875 C 377.109375 717.511719 378.121094 718.429688 379.175781 719.296875 C 380.234375 720.164062 381.328125 720.976562 382.464844 721.738281 C 383.601562 722.496094 384.773438 723.199219 385.976562 723.84375 C 387.183594 724.488281 388.417969 725.070312 389.679688 725.59375 C 390.941406 726.117188 392.226562 726.578125 393.535156 726.972656 C 394.84375 727.371094 396.167969 727.703125 397.507812 727.96875 C 398.847656 728.234375 400.199219 728.4375 401.558594 728.570312 C 402.917969 728.703125 404.28125 728.769531 405.648438 728.769531 C 407.015625 728.769531 408.378906 728.703125 409.738281 728.570312 C 411.097656 728.4375 412.449219 728.234375 413.789062 727.96875 C 415.128906 727.703125 416.453125 727.371094 417.761719 726.972656 C 419.070312 726.578125 420.355469 726.117188 421.617188 725.59375 C 422.878906 725.070312 424.113281 724.488281 425.316406 723.84375 C 426.523438 723.199219 427.695312 722.496094 428.828125 721.738281 C 429.964844 720.976562 431.0625 720.164062 432.117188 719.296875 C 433.175781 718.429688 434.1875 717.511719 435.152344 716.546875 L 716.769531 435.375 C 717.734375 434.410156 718.652344 433.398438 719.523438 432.339844 C 720.390625 431.285156 721.203125 430.1875 721.964844 429.050781 C 722.722656 427.914062 723.425781 426.742188 724.070312 425.539062 C 724.714844 424.332031 725.300781 423.097656 725.824219 421.835938 C 726.347656 420.574219 726.808594 419.285156 727.207031 417.980469 C 727.601562 416.671875 727.933594 415.347656 728.203125 414.003906 C 728.46875 412.664062 728.667969 411.3125 728.804688 409.953125 C 728.9375 408.589844 729.003906 407.226562 729.003906 405.859375 C 729.003906 404.492188 728.9375 403.128906 728.804688 401.769531 C 728.667969 400.40625 728.46875 399.058594 728.203125 397.714844 C 727.933594 396.375 727.601562 395.050781 727.207031 393.742188 C 726.808594 392.433594 726.347656 391.148438 725.824219 389.886719 C 725.300781 388.621094 724.714844 387.386719 724.070312 386.183594 C 723.425781 384.976562 722.722656 383.804688 721.964844 382.667969 C 721.203125 381.53125 720.390625 380.4375 719.523438 379.378906 C 718.652344 378.324219 717.734375 377.3125 716.769531 376.347656 " fill-opacity="1" fill-rule="nonzero"/></g></svg>