<svg xmlns="http://www.w3.org/2000/svg" xmlns:xlink="http://www.w3.org/1999/xlink" width="1080" zoomAndPan="magnify" viewBox="0 0 810 809.999993" height="1080" preserveAspectRatio="xMidYMid meet" version="1.0"><defs><clipPath id="ada6c58a9b"><path d="M 123 89 L 686.949219 89 L 686.949219 721 L 123 721 Z M 123 89 " clip-rule="nonzero"/></clipPath></defs><g clip-path="url(#ada6c58a9b)"><path fill="#f15a24" d="M 683.941406 93.785156 C 681.332031 90.945312 677.667969 89.324219 673.8125 89.324219 L 137.554688 89.324219 C 133.695312 89.324219 130.03125 90.945312 127.425781 93.785156 C 124.816406 96.628906 123.539062 100.441406 123.882812 104.273438 L 172.195312 645.40625 C 172.703125 651.058594 176.640625 655.820312 182.105469 657.386719 L 401.855469 720.148438 C 403.074219 720.492188 404.335938 720.671875 405.613281 720.671875 C 406.890625 720.671875 408.152344 720.492188 409.375 720.148438 L 629.304688 657.386719 C 634.765625 655.820312 638.703125 651.058594 639.210938 645.40625 L 687.496094 104.273438 C 687.824219 100.429688 686.535156 96.628906 683.941406 93.785156 Z M 568.28125 280.363281 L 310.101562 280.363281 L 316.238281 350.222656 L 562.066406 350.222656 L 543.632812 556.644531 L 405.601562 598.382812 L 404.242188 597.972656 L 267.789062 556.632812 L 260.351562 472.5 L 327.175781 472.5 L 330.113281 505.164062 L 406.371094 521.140625 L 481.265625 505.136719 L 489.238281 416.816406 L 255.328125 416.816406 L 237.195312 213.589844 L 574.265625 213.589844 Z M 568.28125 280.363281 " fill-opacity="1" fill-rule="nonzero"/></g></svg>