<svg xmlns="http://www.w3.org/2000/svg" xmlns:xlink="http://www.w3.org/1999/xlink" width="1080" zoomAndPan="magnify" viewBox="0 0 810 809.999993" height="1080" preserveAspectRatio="xMidYMid meet" version="1.0"><defs><clipPath id="8dd2051d1f"><path d="M 81 81 L 723.75 81 L 723.75 723.75 L 81 723.75 Z M 81 81 " clip-rule="nonzero"/></clipPath><clipPath id="14f25e3269"><path d="M 81 156 L 81 648.582031 C 81 690.003906 114.578125 723.582031 156 723.582031 L 648.582031 723.582031 C 690.003906 723.582031 723.582031 690.003906 723.582031 648.582031 L 723.582031 156 C 723.582031 114.578125 690.003906 81 648.582031 81 L 156 81 C 114.578125 81 81 114.578125 81 156 Z M 81 156 " clip-rule="nonzero"/></clipPath><clipPath id="c49cc7bdf3"><path d="M 460 373 L 651 373 L 651 636 L 460 636 Z M 460 373 " clip-rule="nonzero"/></clipPath><clipPath id="940d22f2fe"><path d="M 81 156 L 81 648.582031 C 81 690.003906 114.578125 723.582031 156 723.582031 L 648.582031 723.582031 C 690.003906 723.582031 723.582031 690.003906 723.582031 648.582031 L 723.582031 156 C 723.582031 114.578125 690.003906 81 648.582031 81 L 156 81 C 114.578125 81 81 114.578125 81 156 Z M 81 156 " clip-rule="nonzero"/></clipPath><clipPath id="beccfb73fd"><path d="M 256 402 L 447 402 L 447 636 L 256 636 Z M 256 402 " clip-rule="nonzero"/></clipPath><clipPath id="4409eb17c7"><path d="M 81 156 L 81 648.582031 C 81 690.003906 114.578125 723.582031 156 723.582031 L 648.582031 723.582031 C 690.003906 723.582031 723.582031 690.003906 723.582031 648.582031 L 723.582031 156 C 723.582031 114.578125 690.003906 81 648.582031 81 L 156 81 C 114.578125 81 81 114.578125 81 156 Z M 81 156 " clip-rule="nonzero"/></clipPath></defs><g clip-path="url(#8dd2051d1f)"><g clip-path="url(#14f25e3269)"><path fill="#ffed0c" d="M 110.207031 81 C 94.078125 81 81 94.078125 81 110.207031 L 81 694.367188 C 81 710.496094 94.078125 723.574219 110.207031 723.574219 L 694.367188 723.574219 C 710.496094 723.574219 723.574219 710.496094 723.574219 694.367188 L 723.574219 110.207031 C 723.574219 94.078125 710.496094 81 694.367188 81 Z M 110.207031 81 " fill-opacity="1" fill-rule="nonzero"/></g></g><g clip-path="url(#c49cc7bdf3)"><g clip-path="url(#940d22f2fe)"><path fill="#000000" d="M 533.722656 431.496094 C 525.660156 431.496094 519.117188 438.035156 519.117188 446.097656 L 519.117188 460.703125 C 519.117188 468.765625 525.660156 475.308594 533.722656 475.308594 L 577.535156 475.308594 C 617.863281 475.308594 650.554688 508 650.554688 548.328125 L 650.554688 562.929688 C 650.554688 603.257812 617.863281 635.949219 577.535156 635.949219 L 489.910156 635.949219 L 489.910156 577.535156 L 577.535156 577.535156 C 585.597656 577.535156 592.136719 570.996094 592.136719 562.929688 L 592.136719 548.328125 C 592.136719 540.261719 585.597656 533.722656 577.535156 533.722656 L 533.722656 533.722656 C 493.394531 533.722656 460.703125 501.03125 460.703125 460.703125 L 460.703125 446.097656 C 460.703125 405.773438 493.394531 373.078125 533.722656 373.078125 L 621.347656 373.078125 L 621.347656 431.496094 Z M 533.722656 431.496094 " fill-opacity="1" fill-rule="evenodd"/></g></g><g clip-path="url(#beccfb73fd)"><g clip-path="url(#4409eb17c7)"><path fill="#000000" d="M 387.683594 562.929688 L 387.683594 402.289062 L 446.097656 402.289062 L 446.097656 562.929688 C 446.097656 603.257812 413.40625 635.949219 373.078125 635.949219 L 329.265625 635.949219 C 288.941406 635.949219 256.246094 603.257812 256.246094 562.929688 L 256.246094 548.328125 L 314.664062 548.328125 L 314.664062 562.929688 C 314.664062 570.996094 321.203125 577.535156 329.265625 577.535156 L 373.078125 577.535156 C 381.144531 577.535156 387.683594 570.996094 387.683594 562.929688 Z M 387.683594 562.929688 " fill-opacity="1" fill-rule="evenodd"/></g></g></svg>