<svg xmlns="http://www.w3.org/2000/svg" xmlns:xlink="http://www.w3.org/1999/xlink" width="1080" zoomAndPan="magnify" viewBox="0 0 810 809.999993" height="1080" preserveAspectRatio="xMidYMid meet" version="1.0"><defs><clipPath id="47931fd494"><path d="M 238 90.933594 L 558 90.933594 L 558 719.433594 L 238 719.433594 Z M 238 90.933594 " clip-rule="nonzero"/></clipPath></defs><path fill="#4e7896" d="M 349.722656 424.238281 C 349.722656 424.238281 333.167969 434.316406 361.242188 437.195312 C 395.074219 441.515625 413.070312 440.796875 450.503906 433.597656 C 450.503906 433.597656 460.582031 440.078125 474.257812 445.117188 C 390.035156 481.109375 283.492188 442.953125 349.726562 424.238281 Z M 338.925781 377.449219 C 338.925781 377.449219 320.929688 391.125 349.003906 394.007812 C 385.71875 397.605469 414.511719 398.324219 464.183594 388.246094 C 464.183594 388.246094 470.660156 395.445312 481.457031 399.042969 C 379.960938 429.28125 266.214844 401.921875 338.925781 377.449219 Z M 537.613281 459.503906 C 537.613281 459.503906 549.847656 469.582031 523.933594 477.5 C 475.703125 491.898438 321.65625 496.21875 278.457031 477.5 C 263.34375 471.023438 292.136719 461.664062 301.492188 460.226562 C 310.851562 458.066406 315.890625 458.066406 315.890625 458.066406 C 299.335938 446.546875 205.753906 481.820312 268.378906 491.898438 C 440.425781 519.972656 582.238281 479.664062 537.609375 459.503906 Z M 357.648438 328.488281 C 357.648438 328.488281 279.183594 347.207031 329.574219 353.683594 C 351.171875 356.5625 393.640625 355.84375 433.234375 352.964844 C 465.625 350.085938 498.023438 344.324219 498.023438 344.324219 C 498.023438 344.324219 486.503906 349.363281 478.585938 354.402344 C 398.679688 375.277344 245.355469 365.917969 289.261719 344.324219 C 326.691406 326.328125 357.644531 328.488281 357.644531 328.488281 Z M 498.019531 406.953125 C 578.644531 365.203125 541.210938 324.890625 515.296875 329.929688 C 508.816406 331.367188 505.9375 332.808594 505.9375 332.808594 C 505.9375 332.808594 508.097656 328.488281 513.136719 327.046875 C 564.246094 309.050781 604.558594 381.035156 496.582031 409.113281 C 496.582031 409.113281 497.300781 408.390625 498.019531 406.953125 Z M 365.566406 520.695312 C 443.308594 525.734375 562.074219 517.816406 564.972656 481.101562 C 564.972656 481.101562 559.214844 495.5 500.902344 506.296875 C 434.675781 518.535156 352.613281 517.09375 304.394531 509.175781 C 304.394531 509.175781 314.472656 517.816406 365.582031 520.691406 Z M 365.566406 520.695312 " fill-opacity="1" fill-rule="nonzero"/><g clip-path="url(#47931fd494)"><path fill="#f58219" d="M 449.0625 90.933594 C 449.0625 90.933594 493.695312 136.285156 406.589844 204.671875 C 336.765625 260.101562 390.753906 291.777344 406.589844 327.769531 C 365.558594 291.058594 336.046875 258.664062 356.199219 228.429688 C 385.71875 183.796875 467.070312 162.214844 449.070312 90.933594 Z M 426.042969 297.539062 C 446.917969 321.296875 420.28125 342.894531 420.28125 342.894531 C 420.28125 342.894531 473.550781 315.539062 449.078125 281.703125 C 426.761719 249.3125 409.484375 233.472656 503.066406 179.496094 C 503.066406 179.496094 355.496094 216.210938 426.039062 297.554688 Z M 372.761719 684.097656 L 372.761719 613.550781 C 372.761719 595.554688 362.683594 583.316406 337.488281 583.316406 C 323.089844 583.316406 310.855469 586.914062 300.058594 591.222656 L 303.65625 604.179688 C 311.5625 601.300781 321.652344 598.417969 332.449219 598.417969 C 346.128906 598.417969 352.605469 604.179688 352.605469 615.695312 L 352.605469 625.054688 L 345.410156 625.054688 C 310.855469 625.054688 295.019531 638.011719 295.019531 658.890625 C 295.019531 676.164062 305.816406 686.242188 325.253906 686.242188 C 337.492188 686.242188 346.851562 680.484375 355.488281 673.285156 L 356.925781 684.082031 L 372.765625 684.082031 Z M 352.605469 661.0625 C 345.40625 667.542969 337.488281 671.140625 330.289062 671.140625 C 320.929688 671.140625 315.171875 665.382812 315.171875 655.304688 C 315.171875 645.226562 320.933594 638.027344 343.964844 638.027344 L 352.605469 638.027344 Z M 440.429688 684.097656 L 415.234375 684.097656 L 385.003906 585.476562 L 406.597656 585.476562 L 425.316406 645.945312 L 429.632812 663.941406 C 438.992188 638.027344 446.191406 611.390625 449.070312 585.476562 L 470.667969 585.476562 C 464.90625 617.871094 454.828125 653.144531 440.433594 684.097656 Z M 557.046875 684.097656 L 557.046875 613.550781 C 557.046875 595.554688 546.96875 583.316406 521.773438 583.316406 C 507.375 583.316406 495.136719 586.914062 484.339844 591.222656 L 487.21875 604.179688 C 495.859375 601.300781 505.933594 598.417969 516.734375 598.417969 C 530.414062 598.417969 536.890625 604.179688 536.890625 615.695312 L 536.890625 625.054688 L 529.691406 625.054688 C 495.140625 625.054688 479.300781 638.011719 479.300781 658.890625 C 479.300781 676.164062 489.378906 686.242188 508.816406 686.242188 C 521.773438 686.242188 531.132812 680.484375 539.769531 673.285156 L 541.207031 684.082031 L 557.046875 684.082031 Z M 536.890625 661.0625 C 529.691406 667.542969 521.773438 671.140625 514.574219 671.140625 C 505.214844 671.140625 499.457031 665.382812 499.457031 655.304688 C 499.457031 645.226562 505.21875 638.027344 528.25 638.027344 L 536.890625 638.027344 Z M 272.707031 700.65625 C 266.945312 709.296875 258.308594 715.773438 247.511719 719.371094 L 238.148438 707.863281 C 245.34375 703.542969 252.546875 697.066406 255.425781 691.304688 C 258.304688 686.265625 259.023438 679.066406 259.023438 662.507812 L 259.023438 550.210938 L 280.621094 550.210938 L 280.621094 661.070312 C 280.621094 683.386719 278.460938 692.023438 272.714844 700.664062 Z M 272.707031 700.65625 " fill-opacity="1" fill-rule="nonzero"/></g></svg>