<svg xmlns="http://www.w3.org/2000/svg" xmlns:xlink="http://www.w3.org/1999/xlink" width="1080" zoomAndPan="magnify" viewBox="0 0 810 809.999993" height="1080" preserveAspectRatio="xMidYMid meet" version="1.0"><defs><clipPath id="2edac7991c"><path d="M 96 110 L 723.296875 110 L 723.296875 723 L 96 723 Z M 96 110 " clip-rule="nonzero"/></clipPath></defs><g clip-path="url(#2edac7991c)"><path fill="#00678c" d="M 673.882812 583.472656 C 639.785156 582.523438 613.332031 586.019531 591.160156 595.347656 C 584.777344 597.910156 574.53125 597.910156 573.691406 605.945312 C 577.101562 609.316406 577.511719 614.835938 580.503906 619.507812 C 585.617188 627.988281 594.582031 639.414062 602.675781 645.339844 L 629.960938 664.839844 C 646.589844 675.003906 665.351562 680.9375 681.546875 691.109375 C 690.933594 697.046875 700.308594 704.671875 709.695312 711.035156 C 714.472656 714.425781 717.367188 719.945312 723.339844 722.054688 L 723.339844 720.773438 C 720.359375 716.972656 719.5 711.464844 716.527344 707.210938 L 703.722656 694.929688 C 691.363281 678.402344 676.007812 663.984375 659.375 652.132812 C 645.730469 642.804688 615.894531 630.097656 610.351562 614.425781 L 609.507812 613.476562 C 618.875 612.527344 629.960938 609.230469 638.925781 606.6875 C 653.433594 602.886719 666.640625 603.722656 681.550781 599.914062 L 702.03125 593.980469 L 702.03125 590.179688 C 694.355469 582.554688 688.8125 572.382812 680.71875 565.183594 C 658.976562 546.539062 635.082031 528.3125 610.351562 513.058594 C 597.132812 504.585938 580.074219 499.070312 566.007812 491.878906 C 560.875 489.332031 552.359375 488.0625 549.378906 483.824219 C 541.683594 474.519531 537.429688 462.21875 531.886719 451.191406 L 496.929688 377.460938 C 489.253906 360.9375 484.554688 344.410156 475.1875 329.15625 C 431.265625 257.117188 383.5 213.476562 310.160156 170.671875 C 294.390625 161.769531 275.628906 157.941406 255.683594 153.289062 L 223.707031 151.578125 C 216.875 148.617188 210.058594 140.5625 204.085938 136.746094 C 179.785156 121.492188 117.101562 88.441406 99.179688 131.996094 C 87.664062 159.539062 116.242188 186.65625 125.941406 200.644531 C 133.203125 210.390625 142.570312 221.40625 147.703125 232.421875 C 150.570312 239.621094 151.523438 247.257812 154.515625 254.886719 C 161.328125 273.527344 167.734375 294.300781 176.6875 311.679688 C 181.464844 320.582031 186.484375 329.917969 192.457031 337.960938 C 195.867188 342.710938 201.839844 344.742188 203.113281 352.367188 C 197.140625 360.851562 196.726562 373.546875 193.316406 384.15625 C 177.957031 432.042969 183.933594 491.367188 205.671875 526.621094 C 212.507812 537.210938 228.609375 560.527344 250.457031 551.621094 C 269.648438 543.992188 265.367188 519.839844 270.910156 498.652344 C 272.199219 493.570312 271.339844 490.179688 273.890625 486.777344 L 273.890625 487.730469 L 291.378906 522.898438 C 304.597656 543.660156 327.628906 565.277344 346.808594 579.695312 C 357.035156 587.320312 365.140625 600.464844 377.925781 605.121094 L 377.925781 603.835938 L 377.085938 603.835938 C 374.523438 600.039062 370.683594 598.328125 367.269531 595.367188 C 359.597656 587.738281 351.070312 578.414062 345.097656 569.941406 C 327.199219 546.214844 311.429688 519.933594 297.351562 492.820312 C 290.519531 479.683594 284.546875 465.277344 279.023438 452.140625 C 276.441406 447.050781 276.441406 439.414062 272.191406 436.886719 C 265.785156 446.195312 256.421875 454.269531 251.710938 465.703125 C 243.605469 483.921875 242.765625 506.382812 239.78125 529.6875 C 238.0625 530.117188 238.828125 529.6875 238.0625 530.640625 C 224.433594 527.257812 219.730469 513.257812 214.617188 501.40625 C 201.832031 471.316406 199.691406 423.011719 210.777344 388.261719 C 213.757812 379.359375 226.566406 351.390625 221.453125 342.917969 C 218.871094 334.863281 210.367188 330.210938 205.664062 323.847656 C 200.121094 315.792969 194.167969 305.632812 190.324219 296.730469 C 180.101562 272.988281 174.988281 246.726562 163.890625 222.992188 C 158.757812 211.976562 149.8125 200.53125 142.558594 190.367188 C 134.457031 178.921875 125.519531 170.871094 119.117188 157.316406 C 116.984375 152.566406 114.003906 145.027344 117.417969 139.933594 C 118.257812 136.542969 119.976562 135.1875 123.371094 134.425781 C 128.914062 129.679688 144.699219 135.699219 150.242188 138.226562 C 166.011719 144.589844 179.230469 150.515625 192.445312 159.40625 C 198.421875 163.640625 204.824219 171.695312 212.496094 173.824219 L 221.460938 173.824219 C 235.109375 176.785156 250.449219 174.773438 263.226562 178.570312 C 285.828125 185.789062 306.289062 196.371094 324.636719 207.824219 C 380.488281 242.992188 426.550781 293 457.667969 352.757812 C 462.78125 362.503906 464.914062 371.402344 469.617188 381.574219 C 478.582031 402.34375 489.667969 423.523438 498.601562 443.878906 C 507.566406 463.792969 516.089844 484.148438 528.878906 500.675781 C 535.28125 509.574219 560.855469 514.226562 572.363281 518.890625 C 580.894531 522.6875 594.105469 526.109375 601.796875 530.761719 C 616.285156 539.660156 630.785156 549.832031 644.421875 559.578125 C 651.234375 564.648438 672.566406 575.25 673.835938 583.703125 Z M 239.046875 215.234375 C 233.128906 215.179688 227.304688 215.886719 221.574219 217.351562 L 221.574219 218.300781 L 222.417969 218.300781 C 225.828125 225.082031 231.800781 229.746094 236.0625 235.679688 L 245.878906 256.023438 L 246.71875 255.074219 C 252.691406 250.839844 255.683594 244.058594 255.683594 233.894531 C 253.125 230.933594 252.703125 227.960938 250.570312 224.996094 C 248.011719 220.761719 242.46875 218.632812 239.046875 215.25 Z M 239.046875 215.234375 " fill-opacity="1" fill-rule="evenodd"/></g></svg>