<svg xmlns="http://www.w3.org/2000/svg" xmlns:xlink="http://www.w3.org/1999/xlink" width="1080" zoomAndPan="magnify" viewBox="0 0 810 809.999993" height="1080" preserveAspectRatio="xMidYMid meet" version="1.0"><path fill="#8cc84b" d="M 378.691406 99.957031 C 394.308594 91.109375 414.21875 91.070312 429.445312 99.957031 L 662.59375 231.472656 C 677.175781 239.675781 686.9375 255.945312 686.800781 272.765625 L 686.800781 536.457031 C 686.898438 553.976562 676.179688 570.597656 660.796875 578.648438 L 428.898438 709.554688 C 426.925781 710.644531 424.886719 711.601562 422.785156 712.421875 C 420.683594 713.242188 418.535156 713.917969 416.34375 714.453125 C 414.152344 714.984375 411.9375 715.371094 409.691406 715.609375 C 407.449219 715.84375 405.203125 715.933594 402.945312 715.871094 C 400.691406 715.808594 398.453125 715.597656 396.226562 715.234375 C 394 714.875 391.804688 714.367188 389.648438 713.710938 C 387.488281 713.058594 385.382812 712.265625 383.328125 711.328125 C 381.277344 710.394531 379.292969 709.328125 377.382812 708.128906 L 307.792969 667.890625 C 303.050781 665.058594 297.722656 662.8125 294.363281 658.222656 C 297.332031 654.238281 302.601562 653.730469 306.898438 651.972656 C 316.578125 648.886719 325.441406 644.160156 334.34375 639.160156 C 336.585938 637.597656 339.339844 638.183594 341.488281 639.589844 L 400.828125 673.925781 C 405.0625 676.367188 409.359375 673.144531 412.988281 671.09375 L 640.691406 542.511719 C 643.503906 541.144531 645.066406 538.175781 644.832031 535.089844 L 644.832031 273.9375 C 645.144531 270.421875 643.132812 267.21875 639.949219 265.792969 L 408.636719 135.449219 C 407.96875 134.988281 407.25 134.636719 406.476562 134.394531 C 405.703125 134.152344 404.910156 134.027344 404.101562 134.027344 C 403.289062 134.027344 402.496094 134.144531 401.722656 134.382812 C 400.949219 134.621094 400.226562 134.972656 399.558594 135.429688 L 168.578125 266.046875 C 165.453125 267.472656 163.304688 270.636719 163.695312 274.152344 L 163.695312 535.304688 C 163.421875 538.390625 165.0625 541.300781 167.894531 542.628906 L 229.617188 577.492188 C 241.210938 583.746094 255.441406 587.261719 268.207031 582.671875 C 269.597656 582.148438 270.9375 581.519531 272.230469 580.792969 C 273.523438 580.066406 274.753906 579.246094 275.925781 578.328125 C 277.09375 577.414062 278.1875 576.417969 279.203125 575.335938 C 280.21875 574.253906 281.148438 573.101562 281.992188 571.878906 C 282.832031 570.65625 283.578125 569.378906 284.226562 568.042969 C 284.875 566.707031 285.417969 565.328125 285.855469 563.910156 C 286.292969 562.492188 286.621094 561.046875 286.839844 559.578125 C 287.058594 558.109375 287.167969 556.632812 287.160156 555.148438 L 287.21875 295.558594 C 286.945312 291.710938 290.578125 288.527344 294.304688 288.917969 L 323.976562 288.917969 C 327.878906 288.820312 330.945312 292.960938 330.417969 296.828125 L 330.359375 558.058594 C 330.378906 581.265625 320.855469 606.5 299.402344 617.886719 C 272.96875 631.5625 240.292969 628.6875 214.175781 615.542969 L 147.808594 578.820312 C 132.191406 571.007812 121.707031 554.132812 121.804688 536.632812 L 121.804688 272.941406 C 121.820312 270.808594 121.980469 268.683594 122.277344 266.570312 C 122.578125 264.460938 123.015625 262.378906 123.589844 260.324219 C 124.164062 258.269531 124.875 256.261719 125.71875 254.304688 C 126.5625 252.34375 127.53125 250.449219 128.625 248.621094 C 129.722656 246.789062 130.933594 245.039062 132.261719 243.371094 C 133.589844 241.703125 135.019531 240.128906 136.558594 238.652344 C 138.097656 237.171875 139.722656 235.804688 141.445312 234.542969 C 143.164062 233.28125 144.960938 232.140625 146.832031 231.121094 Z M 445.917969 282.746094 C 479.632812 280.792969 515.722656 281.457031 546.058594 298.078125 C 569.542969 310.8125 582.5625 337.535156 582.992188 363.667969 C 582.328125 367.183594 578.65625 369.136719 575.300781 368.882812 C 565.539062 368.863281 555.742188 369.019531 545.941406 368.824219 C 541.785156 368.980469 539.382812 365.152344 538.855469 361.480469 C 536.042969 348.980469 529.230469 336.617188 517.480469 330.582031 C 499.445312 321.539062 478.519531 321.988281 458.84375 322.183594 C 444.476562 322.964844 429.035156 324.195312 416.875 332.632812 C 407.503906 339.039062 404.691406 352.164062 408.03125 362.359375 C 411.152344 369.84375 419.800781 372.246094 426.847656 374.472656 C 467.488281 385.097656 510.53125 384.238281 550.410156 398.046875 C 566.90625 403.75 583.050781 414.84375 588.710938 432.132812 C 596.089844 455.296875 592.867188 482.996094 576.414062 501.589844 C 563.058594 516.902344 543.617188 525.027344 524.195312 529.757812 C 498.371094 535.519531 471.589844 535.65625 445.375 533.078125 C 420.71875 530.265625 395.070312 523.777344 376.039062 506.980469 C 359.757812 492.839844 351.832031 470.804688 352.613281 449.554688 C 352.808594 445.960938 356.378906 443.460938 359.835938 443.753906 L 389.117188 443.753906 C 393.058594 443.480469 395.949219 446.878906 396.144531 450.589844 C 397.957031 462.308594 402.429688 475.007812 412.8125 481.84375 C 432.839844 494.773438 457.964844 493.875 480.878906 494.246094 C 499.875 493.40625 521.191406 493.152344 536.707031 480.574219 C 544.90625 473.402344 547.308594 461.429688 545.101562 451.117188 C 542.699219 442.40625 533.390625 438.363281 525.582031 435.492188 C 485.46875 422.796875 441.9375 427.40625 402.214844 413.027344 C 386.089844 407.324219 370.492188 396.542969 364.304688 379.960938 C 355.65625 356.519531 359.621094 327.476562 377.832031 309.503906 C 395.402344 291.632812 421.167969 284.738281 445.566406 282.277344 Z M 445.917969 282.746094 " fill-opacity="1" fill-rule="nonzero"/></svg>