<svg xmlns="http://www.w3.org/2000/svg" xmlns:xlink="http://www.w3.org/1999/xlink" width="1080" zoomAndPan="magnify" viewBox="0 0 810 809.999993" height="1080" preserveAspectRatio="xMidYMid meet" version="1.0"><defs><clipPath id="a24876024c"><path d="M 90.425781 658 L 201 658 L 201 716 L 90.425781 716 Z M 90.425781 658 " clip-rule="nonzero"/></clipPath></defs><g clip-path="url(#a24876024c)"><path fill="#f15a24" d="M 200.40625 711.585938 L 90.425781 715.386719 L 146.804688 658.070312 L 200.410156 711.585938 Z M 200.40625 711.585938 " fill-opacity="1" fill-rule="nonzero"/></g><path fill="#f15a24" d="M 699.296875 427.3125 C 678.875 586.59375 533.148438 699.152344 373.839844 678.679688 C 214.527344 658.261719 101.976562 512.558594 122.402344 353.277344 C 142.847656 193.988281 288.546875 81.4375 447.886719 101.882812 C 607.195312 122.316406 719.769531 268.03125 699.296875 427.3125 " fill-opacity="1" fill-rule="nonzero"/><path fill="#999999" d="M 485.003906 307.632812 C 504.113281 327.945312 485.265625 375.96875 485.265625 375.96875 C 485.265625 375.96875 466.613281 443.859375 359.894531 531.90625 L 339.949219 512.367188 L 475.460938 373.914062 L 478.066406 370.375 C 481.679688 364.492188 484.644531 307.238281 485.003906 307.632812 " fill-opacity="1" fill-rule="nonzero"/><path stroke-linecap="round" transform="matrix(2.391676, 0, 0, 2.391275, 90.425457, 98.31895)" fill="none" stroke-linejoin="round" d="M 164.979899 87.532321 C 172.96985 96.026743 165.089328 116.109516 165.089328 116.109516 C 165.089328 116.109516 157.290469 144.500488 112.669561 181.32054 L 104.33009 173.14956 L 160.989823 115.250273 L 162.079213 113.770283 C 163.589987 111.310168 164.829638 87.367333 164.979899 87.532321 Z M 164.979899 87.532321 " stroke="#ffffff" stroke-width="1.918" stroke-opacity="1" stroke-miterlimit="4"/><path stroke-linecap="round" transform="matrix(2.391676, 0, 0, 2.391275, 90.425457, 98.31895)" fill-opacity="1" fill="#666666" fill-rule="nonzero" stroke-linejoin="round" d="M 92.098538 161.11035 L 164.86067 87.323227 C 168.560024 91.707656 169.340727 96.433495 168.269302 103.170225 C 167.550664 107.830722 159.490482 117.150083 159.490482 117.150083 L 104.33009 173.14956 " stroke="#ffffff" stroke-width="1.201" stroke-opacity="1" stroke-miterlimit="4"/><path fill="#ff931e" d="M 485.003906 307.753906 L 310.695312 483.578125 L 311.046875 483.242188 L 310.984375 483.265625 L 267.734375 440.652344 C 357.910156 328.492188 416.21875 307.578125 416.21875 307.578125 C 416.21875 307.578125 454.199219 292.761719 481.273438 304.261719 C 483.355469 305.375 484.261719 306.015625 485.003906 307.757812 " fill-opacity="1" fill-rule="nonzero"/><path stroke-linecap="round" transform="matrix(2.391676, 0, 0, 2.391275, 90.425457, 98.31895)" fill="none" stroke-linejoin="round" d="M 164.979899 87.582961 L 92.098538 161.11035 L 92.245533 160.969866 L 92.2194 160.979667 L 74.135847 143.15935 C 111.83986 96.255439 136.219666 87.509451 136.219666 87.509451 C 136.219666 87.509451 152.09994 81.313424 163.420127 86.122573 C 164.290659 86.588133 164.669578 86.856034 164.979899 87.584594 Z M 164.979899 87.582961 " stroke="#ffffff" stroke-width="1.918" stroke-opacity="1" stroke-miterlimit="4"/><path stroke-linecap="round" transform="matrix(2.391676, 0, 0, 2.391275, 90.425457, 98.31895)" fill-opacity="1" fill="#999999" fill-rule="nonzero" stroke-linejoin="round" d="M 112.669561 181.32054 C 95.27688 195.640176 73.02359 218.140592 42.77545 233.83077 L 49.504518 262.589289 L 20.987642 234.500522 L 92.096905 161.11035 " stroke="#ffffff" stroke-width="1.918" stroke-opacity="1" stroke-miterlimit="4"/><path stroke-linecap="round" transform="matrix(2.391676, 0, 0, 2.391275, 90.425457, 98.31895)" fill-opacity="1" fill="#f15a24" fill-rule="nonzero" stroke-linejoin="round" d="M 74.622561 143.399481 L 92.287998 160.999269 L 51.477506 169.840002 L 74.232209 143.079306 L 74.624194 143.399481 Z M 74.622561 143.399481 " stroke="#ffffff" stroke-width="1.918" stroke-opacity="1" stroke-miterlimit="4"/><path fill="#999999" d="M 468.359375 256.730469 C 464.21875 294.132812 491.152344 327.800781 528.554688 331.972656 C 565.9375 336.125 599.636719 309.175781 603.824219 271.789062 C 607.984375 234.402344 581.007812 200.695312 543.601562 196.539062 C 506.195312 192.410156 472.519531 219.320312 468.359375 256.730469 " fill-opacity="1" fill-rule="nonzero"/><path stroke-linecap="round" transform="matrix(2.391676, 0, 0, 2.391275, 90.425457, 98.31895)" fill="none" stroke-linejoin="round" d="M 158.02054 66.245626 C 156.289275 81.886797 167.550664 95.966302 183.189214 97.710925 C 198.819598 99.447381 212.909809 88.17757 214.660674 72.542933 C 216.400105 56.908296 205.12075 42.812456 189.480566 41.074367 C 173.840383 39.347712 159.759971 50.601188 158.02054 66.245626 Z M 158.02054 66.245626 " stroke="#ffffff" stroke-width="1.918" stroke-opacity="1" stroke-miterlimit="4"/><path fill="#666666" d="M 594.039062 301.90625 C 606.597656 283.542969 605.953125 256.074219 603.417969 247.9375 C 600.332031 237.96875 593.394531 221.765625 581.316406 213.339844 L 517.433594 272.179688 C 517.433594 272.179688 566.535156 324.929688 567.804688 325.101562 C 568.332031 325.164062 582.5625 318.652344 594.039062 301.90625 " fill-opacity="1" fill-rule="nonzero"/><path stroke-linecap="round" transform="matrix(2.391676, 0, 0, 2.391275, 90.425457, 98.31895)" fill="none" stroke-linejoin="round" d="M 210.569335 85.137547 C 215.820295 77.458263 215.550805 65.971191 214.490814 62.568522 C 213.200531 58.399721 210.299845 51.623786 205.249778 48.100234 L 178.539298 72.706287 C 178.539298 72.706287 199.069488 94.765648 199.600301 94.837524 C 199.820792 94.86366 205.770791 92.140545 210.569335 85.137547 Z M 205.179547 65.863377 C 205.179547 65.863377 207.740513 72.170485 204.490308 77.077648 Z M 205.179547 65.863377 " stroke="#ffffff" stroke-width="1.918" stroke-opacity="1" stroke-miterlimit="4"/><path fill="#666666" d="M 341.457031 512.390625 L 270.953125 524.921875 L 313.515625 480.707031 " fill-opacity="1" fill-rule="nonzero"/><path stroke-linecap="round" transform="matrix(2.391676, 0, 0, 2.391275, 90.425457, 98.31895)" fill="none" stroke-linejoin="round" d="M 104.960531 173.159361 L 75.48166 178.399766 L 93.277759 159.909696 M 75.308534 143.530164 L 112.790423 178.799984 " stroke="#ffffff" stroke-width="1.918" stroke-opacity="1" stroke-miterlimit="4"/></svg>