<svg xmlns="http://www.w3.org/2000/svg" xmlns:xlink="http://www.w3.org/1999/xlink" width="1080" zoomAndPan="magnify" viewBox="0 0 810 809.999993" height="1080" preserveAspectRatio="xMidYMid meet" version="1.0"><defs><clipPath id="7613003952"><path d="M 84 356.105469 L 726 356.105469 L 726 453.605469 L 84 453.605469 Z M 84 356.105469 " clip-rule="nonzero"/></clipPath></defs><g clip-path="url(#7613003952)"><path fill="#ffffff" d="M 124.210938 395.265625 L 93.0625 395.265625 L 93.0625 363.9375 L 125.898438 363.9375 C 137.917969 363.9375 143.929688 369.238281 143.929688 379.828125 C 143.929688 390.109375 137.355469 395.25 124.207031 395.25 M 146.597656 363.570312 C 142.328125 359.746094 136.359375 357.835938 128.683594 357.835938 L 84.078125 358.085938 L 84.078125 433.019531 L 93.0625 433.019531 L 92.980469 401.121094 L 126.171875 401.121094 C 134.496094 401.121094 141.046875 399.210938 145.828125 395.386719 C 150.605469 391.566406 152.984375 386.261719 152.984375 379.476562 C 152.984375 372.695312 150.851562 367.410156 146.566406 363.570312 Z M 204.777344 417.292969 C 203.867188 419.824219 202.441406 421.945312 200.5 423.667969 C 196.476562 427.597656 190.332031 429.558594 182.070312 429.558594 C 174.613281 429.558594 168.886719 427.648438 164.890625 423.828125 C 160.894531 420.007812 158.898438 414.898438 158.898438 408.511719 C 158.898438 405.175781 159.417969 402.214844 160.464844 399.648438 C 161.511719 397.082031 163.027344 394.886719 165.011719 393.109375 C 169.140625 389.34375 174.828125 387.460938 182.074219 387.460938 C 198.113281 387.460938 206.136719 394.480469 206.136719 408.523438 C 206.136719 411.859375 205.675781 414.792969 204.765625 417.320312 M 206.398438 389.675781 C 200.917969 384.679688 192.8125 382.183594 182.074219 382.183594 C 171.925781 382.183594 164.085938 384.734375 158.554688 389.824219 C 153.5625 394.441406 151.066406 400.671875 151.066406 408.507812 C 151.066406 416.292969 153.640625 422.578125 158.796875 427.355469 C 161.640625 429.933594 164.957031 431.785156 168.726562 432.953125 C 172.496094 434.121094 176.957031 434.683594 182.054688 434.683594 C 192.738281 434.683594 200.875 432.214844 206.460938 427.273438 C 211.453125 422.761719 213.949219 416.511719 213.949219 408.507812 C 213.949219 400.457031 211.425781 394.171875 206.378906 389.660156 Z M 274.382812 419.457031 C 274.382812 429.542969 265.34375 434.585938 247.269531 434.585938 C 241.746094 434.585938 237.09375 434.234375 233.308594 433.519531 C 229.527344 432.800781 226.457031 431.652344 224.097656 430.035156 C 222.273438 428.8125 220.828125 427.191406 219.753906 425.203125 C 218.679688 423.21875 217.984375 420.722656 217.664062 417.71875 L 226.074219 417.636719 C 226.074219 421.605469 227.542969 424.53125 230.503906 426.410156 C 233.660156 428.664062 239.257812 429.789062 247.285156 429.789062 C 259.917969 429.789062 266.234375 426.628906 266.234375 420.292969 C 266.234375 416.59375 264.117188 414.027344 259.878906 412.648438 C 259.019531 412.378906 253.914062 411.667969 244.554688 410.515625 C 235.195312 409.363281 229.363281 408.332031 227.054688 407.417969 C 222.066406 405.433594 219.574219 401.863281 219.574219 396.710938 C 219.574219 391.671875 221.800781 387.910156 226.257812 385.445312 C 228.460938 384.425781 231.210938 383.632812 234.515625 383.070312 C 237.820312 382.507812 241.644531 382.222656 245.992188 382.222656 C 263.390625 382.222656 272.089844 387.683594 272.089844 398.597656 L 264.09375 398.597656 C 264.09375 390.925781 257.976562 387.089844 245.746094 387.089844 C 239.527344 387.089844 234.898438 387.851562 231.84375 389.421875 C 228.789062 390.992188 227.261719 393.367188 227.261719 396.601562 C 227.261719 399.609375 229.324219 401.796875 233.457031 403.121094 C 235.871094 403.820312 241.421875 404.625 250.113281 405.535156 C 257.90625 406.234375 263.230469 407.222656 266.125 408.515625 C 271.652344 410.660156 274.414062 414.308594 274.414062 419.457031 Z M 307.414062 433.109375 L 303.992188 433.589844 L 301.859375 433.75 C 296.386719 433.75 292.4375 432.953125 290.015625 431.367188 C 287.589844 429.78125 286.382812 427 286.382812 423.019531 L 286.382812 388.832031 L 276.40625 388.832031 L 276.40625 383.789062 L 286.300781 383.789062 L 286.378906 367.632812 L 294.046875 367.632812 L 294.046875 383.804688 L 307.398438 383.804688 L 307.398438 388.917969 L 294.046875 388.835938 L 294.046875 422.109375 C 294.046875 424.585938 294.703125 426.292969 296.035156 427.238281 C 297.363281 428.183594 299.695312 428.652344 303.0625 428.652344 C 303.542969 428.707031 304.082031 428.691406 304.671875 428.601562 C 305.261719 428.507812 306.148438 428.304688 307.332031 427.996094 L 307.410156 433.125 Z M 360.4375 421.777344 C 358.34375 423.492188 355.960938 424.804688 353.277344 425.71875 C 350.59375 426.632812 347.515625 427.085938 344.027344 427.085938 C 327.996094 427.085938 319.976562 420.464844 319.976562 407.222656 C 319.976562 401.054688 322.027344 396.230469 326.132812 392.746094 C 330.234375 389.257812 336.011719 387.515625 343.464844 387.515625 C 350.972656 387.515625 356.671875 389.273438 360.558594 392.785156 C 364.449219 396.296875 366.394531 401.003906 366.394531 406.902344 C 366.394531 413.316406 364.40625 418.292969 360.4375 421.78125 M 374.058594 383.84375 L 366.394531 383.84375 L 366.3125 392.296875 C 362.933594 388.867188 360.515625 386.695312 359.070312 385.78125 C 354.792969 383.421875 349.222656 382.242188 342.410156 382.242188 C 332.429688 382.242188 324.808594 384.523438 319.550781 389.082031 C 314.558594 393.265625 312.0625 399.328125 312.0625 407.261719 C 312.0625 411.179688 312.695312 414.679688 313.957031 417.757812 C 315.222656 420.839844 317.058594 423.457031 319.480469 425.601562 C 324.746094 430 332.1875 432.199219 341.808594 432.199219 C 353.359375 432.199219 361.554688 429.039062 366.394531 422.71875 L 366.394531 431.46875 C 366.394531 437.050781 364.636719 441.371094 361.121094 444.425781 C 357.609375 447.480469 351.824219 449.015625 343.777344 449.015625 C 336.210938 449.015625 330.820312 447.972656 327.601562 445.890625 C 325.1875 444.289062 323.519531 441.507812 322.609375 437.558594 L 314.722656 437.558594 C 315.582031 443.078125 317.929688 447.070312 321.726562 449.535156 C 326.125 452.378906 333.558594 453.8125 344.027344 453.8125 C 364.046875 453.8125 374.058594 446.371094 374.058594 431.484375 L 374.058594 383.839844 Z M 415.523438 388.820312 C 413.234375 388.445312 411.074219 388.257812 409.109375 388.257812 C 396.503906 388.257812 390.210938 395.167969 390.210938 408.988281 L 390.210938 433.019531 L 382.625 433.019531 L 382.539062 383.84375 L 390.210938 383.917969 L 390.210938 392.695312 L 390.613281 392.695312 C 391.898438 389.238281 393.9375 386.613281 396.722656 384.832031 C 399.78125 383.105469 404.335938 382.238281 410.398438 382.238281 L 415.542969 382.238281 L 415.542969 388.820312 Z M 422.660156 405.320312 C 423.625 399.730469 425.796875 395.390625 429.175781 392.339844 C 431.375 390.566406 433.871094 389.234375 436.65625 388.347656 C 439.441406 387.460938 442.585938 387.019531 446.070312 387.019531 C 452.882812 387.019531 458.445312 388.886719 462.761719 392.625 C 467.082031 396.359375 469.238281 400.589844 469.238281 405.304688 L 422.640625 405.304688 M 469.96875 390.132812 C 467.285156 387.445312 463.953125 385.453125 459.980469 384.175781 C 456.007812 382.898438 451.363281 382.234375 446.050781 382.234375 C 436.117188 382.234375 428.414062 384.542969 422.933594 389.160156 C 417.457031 393.777344 414.722656 400.0625 414.722656 408.007812 C 414.722656 415.957031 417.355469 422.265625 422.609375 426.933594 C 428.300781 432.089844 436.324219 434.664062 446.683594 434.664062 C 450.8125 434.664062 454.632812 434.195312 458.148438 433.261719 C 461.664062 432.328125 464.738281 431 467.367188 429.292969 C 471.984375 425.976562 474.90625 421.890625 476.144531 417.023438 L 467.855469 417.023438 C 465.015625 425.433594 457.933594 429.636719 446.613281 429.636719 C 438.621094 429.636719 432.476562 427.582031 428.1875 423.46875 C 424.488281 419.941406 422.640625 415.378906 422.640625 409.769531 L 477.296875 409.769531 C 477.296875 401.425781 474.855469 394.886719 469.96875 390.148438 Z M 558.296875 412.898438 C 558.296875 427.5 546.519531 434.800781 522.96875 434.800781 C 508.855469 434.800781 498.558594 432.285156 492.066406 427.253906 C 486.753906 423.121094 484.101562 416.816406 484.101562 408.335938 L 493.582031 408.335938 C 493.582031 421.96875 503.359375 428.78125 522.964844 428.78125 C 532.359375 428.78125 539.148438 427.386719 543.335938 424.597656 C 546.878906 422.132812 548.648438 418.273438 548.648438 413.015625 C 548.648438 407.816406 546.234375 404.15625 541.402344 402.078125 C 538.664062 400.953125 531.980469 399.53125 521.351562 397.800781 C 507.988281 395.761719 499.320312 393.726562 495.351562 391.6875 C 489.609375 388.683594 486.734375 383.589844 486.734375 376.40625 C 486.734375 369.703125 489.179688 364.71875 494.066406 361.445312 C 499.320312 357.902344 508.335938 356.105469 521.109375 356.105469 C 544.1875 356.105469 555.726562 363.773438 555.726562 379.105469 L 546.164062 379.105469 C 546.164062 367.621094 537.609375 361.875 520.457031 361.875 C 511.859375 361.875 505.574219 363.03125 501.597656 365.339844 C 497.835938 367.808594 495.957031 371.433594 495.957031 376.210938 C 495.957031 381.203125 498.371094 384.71875 503.203125 386.761719 C 505.777344 387.941406 513.347656 389.578125 525.90625 391.671875 C 537.71875 393.445312 545.6875 395.511719 549.824219 397.875 C 555.476562 400.773438 558.277344 405.792969 558.277344 412.933594 Z M 635.304688 420.382812 C 631.757812 423.21875 627.757812 425.347656 623.296875 426.769531 C 618.832031 428.1875 613.824219 428.898438 608.324219 428.898438 C 597.039062 428.898438 587.921875 425.84375 580.972656 419.777344 C 574.027344 413.710938 570.542969 405.59375 570.542969 395.484375 C 570.542969 384.929688 573.992188 376.691406 580.894531 370.8125 C 587.800781 364.933594 596.945312 361.972656 608.335938 361.972656 C 619.886719 361.972656 628.964844 365.050781 635.574219 371.214844 C 639.0625 374.21875 641.640625 377.722656 643.308594 381.757812 C 644.976562 385.792969 645.808594 390.355469 645.808594 395.5 C 645.808594 406 642.3125 414.304688 635.328125 420.410156 M 640.367188 425.382812 C 645.308594 421.898438 648.964844 417.675781 651.328125 412.699219 C 653.691406 407.726562 654.875 402.015625 654.875 395.527344 C 654.875 383.890625 651.011719 374.5625 643.265625 367.539062 C 639.132812 363.675781 634.136719 360.808594 628.285156 358.933594 C 622.433594 357.054688 615.773438 356.105469 608.253906 356.105469 C 593.652344 356.105469 582.191406 359.644531 573.871094 366.722656 C 565.554688 373.800781 561.394531 383.398438 561.394531 395.515625 C 561.394531 407.308594 565.589844 416.828125 573.988281 424.0625 C 582.386719 431.300781 593.859375 434.917969 608.402344 434.917969 C 614.089844 434.917969 619.050781 434.535156 623.292969 433.765625 C 627.53125 432.996094 631.128906 431.8125 634.078125 430.222656 L 648.085938 439.929688 L 653.933594 434.554688 L 640.371094 425.359375 Z M 725.867188 433.050781 L 661.085938 433.050781 L 661.085938 358 L 669.992188 357.839844 L 669.992188 426.742188 L 725.953125 426.742188 L 725.871094 433.007812 Z M 725.867188 433.050781 " fill-opacity="1" fill-rule="nonzero"/></g></svg>