<svg xmlns="http://www.w3.org/2000/svg" xmlns:xlink="http://www.w3.org/1999/xlink" width="1080" zoomAndPan="magnify" viewBox="0 0 810 809.999993" height="1080" preserveAspectRatio="xMidYMid meet" version="1.0"><defs><clipPath id="9a83a23f6e"><path d="M 82 117 L 728.886719 117 L 728.886719 693 L 82 693 Z M 82 117 " clip-rule="nonzero"/></clipPath></defs><g clip-path="url(#9a83a23f6e)"><path fill="#00d8ff" d="M 613.371094 303.910156 C 606.6875 301.605469 599.746094 299.421875 592.582031 297.355469 C 593.765625 292.558594 594.851562 287.820312 595.8125 283.167969 C 611.53125 206.730469 601.261719 145.152344 566.113281 124.878906 C 532.402344 105.441406 477.296875 125.710938 421.636719 174.167969 C 416.289062 178.828125 410.914062 183.757812 405.5625 188.929688 C 401.980469 185.507812 398.421875 182.203125 394.867188 179.039062 C 336.53125 127.230469 278.0625 105.390625 242.953125 125.722656 C 209.285156 145.222656 199.316406 203.109375 213.488281 275.550781 C 214.855469 282.546875 216.457031 289.691406 218.261719 296.957031 C 209.988281 299.308594 202 301.8125 194.359375 304.476562 C 125.96875 328.328125 82.296875 365.710938 82.296875 404.492188 C 82.296875 444.527344 129.179688 484.710938 200.410156 509.070312 C 206.03125 510.988281 211.863281 512.804688 217.875 514.523438 C 215.921875 522.371094 214.226562 530.070312 212.800781 537.59375 C 199.292969 608.777344 209.84375 665.292969 243.417969 684.65625 C 278.097656 704.671875 336.304688 684.097656 392.972656 634.550781 C 397.464844 630.636719 401.957031 626.472656 406.449219 622.128906 C 412.300781 627.734375 418.128906 633.058594 423.90625 638.058594 C 478.8125 685.3125 533.035156 704.394531 566.566406 684.984375 C 601.210938 664.914062 612.488281 604.183594 597.855469 530.324219 C 596.746094 524.667969 595.433594 518.914062 593.996094 513.058594 C 598.082031 511.847656 602.09375 510.585938 606.003906 509.296875 C 680.058594 484.738281 728.226562 445.082031 728.226562 404.492188 C 728.226562 365.570312 683.136719 327.9375 613.371094 303.910156 Z M 597.324219 483.097656 C 593.792969 484.257812 590.160156 485.394531 586.476562 486.476562 C 578.300781 460.605469 567.273438 433.066406 553.75 404.617188 C 566.644531 376.851562 577.242188 349.675781 585.1875 323.953125 C 591.800781 325.867188 598.207031 327.882812 604.390625 330.011719 C 664.164062 350.597656 700.625 381.042969 700.625 404.492188 C 700.625 429.457031 661.261719 461.890625 597.324219 483.097656 Z M 570.78125 535.675781 C 577.265625 568.339844 578.175781 597.871094 573.886719 620.96875 C 570.050781 641.71875 562.304688 655.550781 552.742188 661.078125 C 532.378906 672.867188 488.855469 657.542969 441.921875 617.132812 C 436.523438 612.488281 431.097656 607.539062 425.675781 602.316406 C 443.867188 582.398438 462.058594 559.25 479.820312 533.53125 C 511.03125 530.777344 540.527344 526.234375 567.300781 520.050781 C 568.613281 525.375 569.773438 530.578125 570.78125 535.675781 Z M 302.519531 659.035156 C 282.628906 666.078125 266.789062 666.277344 257.214844 660.75 C 236.839844 648.988281 228.371094 603.601562 239.921875 542.742188 C 241.246094 535.777344 242.824219 528.609375 244.640625 521.289062 C 271.097656 527.144531 300.382812 531.359375 331.683594 533.882812 C 349.558594 559.050781 368.28125 582.171875 387.128906 602.414062 C 383.015625 606.402344 378.90625 610.191406 374.816406 613.75 C 349.761719 635.683594 324.652344 651.234375 302.519531 659.035156 Z M 209.34375 482.945312 C 177.847656 472.167969 151.835938 458.183594 134.007812 442.886719 C 117.984375 429.179688 109.898438 415.546875 109.898438 404.492188 C 109.898438 380.964844 144.964844 350.941406 203.449219 330.542969 C 210.546875 328.070312 217.972656 325.734375 225.683594 323.546875 C 233.765625 349.847656 244.371094 377.355469 257.164062 405.148438 C 244.203125 433.367188 233.449219 461.3125 225.285156 487.941406 C 219.789062 486.351562 214.46875 484.6875 209.34375 482.945312 Z M 240.578125 270.25 C 228.4375 208.183594 236.5 161.367188 256.789062 149.617188 C 278.398438 137.101562 326.179688 154.945312 376.53125 199.683594 C 379.761719 202.542969 382.992188 205.535156 386.246094 208.632812 C 367.472656 228.792969 348.929688 251.742188 331.210938 276.757812 C 300.832031 279.574219 271.753906 284.097656 245.019531 290.15625 C 243.335938 283.390625 241.847656 276.746094 240.578125 270.25 Z M 519.183594 339.078125 C 512.800781 328.03125 506.242188 317.25 499.554688 306.757812 C 520.167969 309.367188 539.898438 312.828125 558.445312 317.058594 C 552.894531 334.910156 545.957031 353.570312 537.78125 372.710938 C 531.925781 361.574219 525.71875 350.355469 519.183594 339.078125 Z M 405.566406 228.363281 C 418.308594 242.15625 431.050781 257.558594 443.589844 274.265625 C 430.949219 273.671875 418.15625 273.359375 405.265625 273.359375 C 392.496094 273.359375 379.804688 273.664062 367.238281 274.253906 C 379.78125 257.695312 392.648438 242.316406 405.566406 228.363281 Z M 291.222656 339.269531 C 284.839844 350.34375 278.753906 361.5 272.988281 372.6875 C 264.953125 353.617188 258.078125 334.871094 252.464844 316.765625 C 270.894531 312.644531 290.546875 309.269531 311.023438 306.710938 C 304.238281 317.296875 297.625 328.160156 291.222656 339.265625 Z M 311.613281 504.222656 C 290.453125 501.875 270.507812 498.671875 252.082031 494.65625 C 257.789062 476.230469 264.8125 457.097656 273.019531 437.609375 C 278.800781 448.792969 284.90625 459.949219 291.332031 471.054688 C 297.875 482.363281 304.65625 493.421875 311.613281 504.222656 Z M 406.324219 582.550781 C 393.253906 568.441406 380.207031 552.816406 367.46875 536.027344 C 379.832031 536.507812 392.445312 536.761719 405.265625 536.761719 C 418.433594 536.761719 431.453125 536.457031 444.246094 535.902344 C 431.679688 552.992188 418.964844 568.640625 406.324219 582.550781 Z M 538.03125 436.625 C 546.664062 456.3125 553.953125 475.347656 559.730469 493.46875 C 541.011719 497.738281 520.773438 501.167969 499.480469 503.742188 C 506.191406 493.117188 512.800781 482.136719 519.3125 470.851562 C 525.898438 459.445312 532.128906 448.007812 538.03125 436.625 Z M 495.390625 457.070312 C 485.300781 474.589844 474.929688 491.300781 464.40625 507.074219 C 445.257812 508.4375 425.449219 509.144531 405.265625 509.144531 C 385.15625 509.144531 365.601562 508.539062 346.777344 507.304688 C 335.828125 491.324219 325.242188 474.5625 315.210938 457.222656 C 305.207031 439.933594 295.996094 422.488281 287.652344 405.148438 C 295.992188 387.78125 305.179688 370.3125 315.128906 353.054688 L 315.125 353.058594 C 325.101562 335.753906 335.597656 319.066406 346.449219 303.175781 C 365.648438 301.722656 385.355469 300.964844 405.265625 300.964844 C 425.273438 300.964844 444.980469 301.730469 464.179688 303.195312 C 474.878906 318.96875 485.300781 335.601562 495.316406 352.910156 C 505.433594 370.414062 514.746094 387.757812 523.144531 404.769531 C 514.769531 422.058594 505.484375 439.578125 495.390625 457.070312 Z M 552.3125 148.789062 C 573.964844 161.269531 582.363281 211.59375 568.765625 277.589844 C 567.90625 281.800781 566.921875 286.089844 565.863281 290.433594 C 539.066406 284.246094 509.976562 279.644531 479.519531 276.785156 C 461.757812 251.5 443.363281 228.511719 424.894531 208.613281 C 429.863281 203.835938 434.835938 199.28125 439.753906 194.980469 C 487.445312 153.464844 532.027344 137.074219 552.3125 148.789062 Z M 405.265625 346.777344 C 437.105469 346.777344 462.945312 372.601562 462.945312 404.484375 C 462.945312 436.339844 437.105469 462.1875 405.265625 462.1875 C 373.421875 462.1875 347.585938 436.339844 347.585938 404.484375 C 347.585938 372.601562 373.421875 346.777344 405.265625 346.777344 Z M 405.265625 346.777344 " fill-opacity="1" fill-rule="nonzero"/></g></svg>