<svg xmlns="http://www.w3.org/2000/svg" xmlns:xlink="http://www.w3.org/1999/xlink" width="1080" zoomAndPan="magnify" viewBox="0 0 810 809.999993" height="1080" preserveAspectRatio="xMidYMid meet" version="1.0"><path fill="#ff007e" d="M 405 729 C 583.929688 729 729 583.929688 729 405 C 729 226.070312 583.929688 81 405 81 C 226.070312 81 81 226.070312 81 405 C 81 583.929688 226.070312 729 405 729 Z M 254.097656 263.492188 C 295.921875 224.371094 354.105469 194.371094 407.808594 175.285156 C 498.121094 143.179688 593.566406 162.109375 608.203125 219.699219 L 606.230469 217.890625 C 620.40625 274.589844 571.402344 342.253906 508.652344 366.523438 C 452.761719 388.367188 406.160156 384.75 387.152344 378.675781 C 365.257812 371.386719 352.699219 357.210938 349.460938 349.109375 C 348.246094 345.871094 346.222656 340.605469 349.460938 338.984375 C 351.484375 337.742188 352.296875 338.148438 357.9375 344.222656 C 363.230469 349.921875 383.886719 365.28125 423.574219 360.828125 C 527.660156 349.109375 590.003906 268.488281 570.214844 225.179688 C 556.441406 194.804688 476.632812 181.007812 376.597656 230.851562 C 254.691406 291.601562 247.804688 341.792969 246.996094 360.828125 C 244.160156 413.074219 311.796875 440.613281 348.246094 479.898438 C 349.433594 480.707031 350.269531 481.519531 351.082031 482.734375 C 361.988281 478.277344 377.40625 476.253906 401.707031 475.820312 C 460.808594 475.039062 494.046875 513.890625 492.832031 548.722656 C 491.617188 576.289062 466.480469 587.628906 462.023438 588.4375 C 458.8125 588.84375 456.757812 588.84375 456.355469 586.414062 C 455.976562 584.765625 457.191406 583.984375 461.242188 581.527344 C 465.316406 579.097656 477.007812 570.589844 479.4375 556.039062 C 481.894531 541.457031 470.554688 505.816406 413.828125 499.339844 C 393.578125 496.882812 377.8125 498.5 364.417969 502.144531 C 374.191406 523.609375 376.191406 567.351562 353.511719 601.398438 C 330.019531 636.199219 286.28125 657.691406 243.757812 645.921875 C 229.984375 642.304688 208.925781 613.925781 227.152344 574.234375 C 244.160156 536.542969 316.765625 500.121094 326.671875 495.261719 L 326.671875 495.097656 C 293.03125 466.128906 211.222656 427.085938 199.691406 367.390625 C 196.425781 350.460938 204.335938 309.960938 254.097656 263.492188 Z M 254.097656 263.492188 " fill-opacity="1" fill-rule="nonzero"/><path fill="#ff007e" d="M 264.679688 614.546875 C 275.96875 621.082031 302.265625 613.304688 321.109375 592.8125 C 327.292969 586.0625 332.316406 578.773438 336.097656 570.941406 C 336.796875 569.429688 337.554688 567.835938 338.203125 566.191406 L 339.957031 561.328125 C 344.816406 546.640625 345.328125 530.359375 340.605469 512.945312 L 337.6875 514.59375 L 337.6875 514.675781 C 337.6875 514.675781 303.964844 530.632812 280.449219 555.417969 C 258.578125 578.503906 252.53125 607.472656 264.679688 614.546875 Z M 264.679688 614.546875 " fill-opacity="1" fill-rule="nonzero"/></svg>