<svg xmlns="http://www.w3.org/2000/svg" xmlns:xlink="http://www.w3.org/1999/xlink" width="1080" zoomAndPan="magnify" viewBox="0 0 810 809.999993" height="1080" preserveAspectRatio="xMidYMid meet" version="1.0"><defs><clipPath id="8138f76e4b"><path d="M 331 369 L 704.726562 369 L 704.726562 469 L 331 469 Z M 331 369 " clip-rule="nonzero"/></clipPath></defs><path fill="#68bd45" d="M 295.152344 314.003906 C 292.308594 320.832031 288.707031 327.230469 284.34375 333.199219 C 258.503906 307.332031 220.769531 297.386719 185.558594 307.203125 C 150.351562 317.023438 123.09375 344.878906 114.222656 380.371094 C 105.355469 415.863281 116.21875 453.367188 142.6875 478.605469 L 146.4375 481.917969 C 148.214844 483.417969 150.039062 484.851562 151.917969 486.226562 C 153.792969 487.601562 155.714844 488.90625 157.679688 490.148438 C 159.648438 491.390625 161.652344 492.5625 163.699219 493.664062 C 165.746094 494.769531 167.828125 495.800781 169.945312 496.757812 C 172.0625 497.71875 174.210938 498.605469 176.390625 499.414062 C 178.566406 500.226562 180.769531 500.964844 183 501.625 C 185.230469 502.285156 187.476562 502.867188 189.746094 503.371094 C 192.015625 503.875 194.300781 504.304688 196.597656 504.652344 C 198.894531 505 201.203125 505.269531 203.519531 505.457031 C 205.835938 505.644531 208.15625 505.753906 210.480469 505.785156 C 212.804688 505.816406 215.125 505.765625 217.445312 505.632812 C 219.765625 505.503906 222.082031 505.292969 224.386719 505.003906 C 226.691406 504.714844 228.988281 504.34375 231.269531 503.898438 C 233.546875 503.449219 235.8125 502.925781 238.054688 502.320312 C 240.300781 501.71875 242.523438 501.039062 244.71875 500.28125 C 246.917969 499.523438 249.089844 498.695312 251.230469 497.789062 C 253.371094 496.882812 255.476562 495.902344 257.550781 494.851562 C 259.625 493.800781 261.660156 492.679688 263.65625 491.492188 C 265.652344 490.300781 267.609375 489.042969 269.519531 487.714844 C 271.429688 486.390625 273.292969 485 275.105469 483.546875 C 276.921875 482.09375 278.683594 480.578125 280.394531 479.003906 C 282.105469 477.429688 283.761719 475.796875 285.359375 474.109375 C 286.960938 472.417969 288.5 470.675781 289.976562 468.882812 C 291.457031 467.085938 292.871094 465.242188 294.226562 463.351562 C 295.578125 461.457031 296.863281 459.519531 298.085938 457.539062 C 299.304688 455.558594 300.453125 453.539062 301.535156 451.476562 C 302.617188 449.417969 303.625 447.324219 304.5625 445.195312 C 305.5 443.0625 306.363281 440.90625 307.152344 438.714844 C 307.941406 436.527344 308.652344 434.3125 309.289062 432.074219 C 309.925781 429.835938 310.484375 427.578125 310.96875 425.300781 C 311.449219 423.027344 311.851562 420.734375 312.175781 418.429688 C 312.5 416.125 312.746094 413.8125 312.910156 411.492188 C 315.671875 385.632812 308.097656 352.914062 295.152344 314.015625 Z M 157.113281 479.183594 C 154.90625 481.914062 151.269531 483.042969 147.90625 482.054688 C 144.542969 481.0625 142.109375 478.128906 141.742188 474.632812 C 141.375 471.140625 143.148438 467.773438 146.230469 466.09375 C 149.3125 464.414062 153.097656 464.773438 155.824219 466.984375 C 159.539062 470 160.113281 475.460938 157.101562 479.1875 Z M 294.722656 448.769531 C 269.691406 482.15625 216.246094 470.898438 181.972656 472.511719 C 181.972656 472.511719 175.902344 472.867188 169.785156 473.875 C 169.785156 473.875 172.089844 472.890625 175.039062 471.78125 C 199.109375 463.386719 210.480469 461.777344 225.101562 454.246094 C 252.628906 440.234375 279.851562 409.554688 285.511719 377.65625 C 275.042969 408.339844 243.246094 434.722656 214.300781 445.441406 C 194.460938 452.761719 158.625 459.886719 158.625 459.886719 L 157.183594 459.113281 C 132.789062 447.25 132.035156 394.375 176.328125 377.320312 C 195.796875 369.832031 214.320312 373.941406 235.289062 368.925781 C 257.679688 363.597656 283.585938 346.800781 294.132812 324.886719 C 305.925781 359.949219 320.125 414.777344 294.660156 448.785156 Z M 294.722656 448.769531 " fill-opacity="1" fill-rule="nonzero"/><g clip-path="url(#8138f76e4b)"><path fill="#68bd45" d="M 334.5625 437.703125 C 334.058594 437.398438 333.605469 437.035156 333.203125 436.609375 C 332.796875 436.183594 332.457031 435.710938 332.179688 435.191406 C 331.902344 434.675781 331.699219 434.128906 331.570312 433.554688 C 331.441406 432.980469 331.390625 432.402344 331.417969 431.816406 C 331.414062 431.363281 331.453125 430.914062 331.535156 430.46875 C 331.621094 430.023438 331.75 429.589844 331.921875 429.171875 C 332.089844 428.753906 332.300781 428.355469 332.550781 427.976562 C 332.800781 427.601562 333.089844 427.253906 333.40625 426.933594 C 333.726562 426.613281 334.078125 426.328125 334.453125 426.078125 C 334.832031 425.828125 335.230469 425.617188 335.648438 425.445312 C 336.066406 425.277344 336.5 425.148438 336.945312 425.066406 C 337.386719 424.984375 337.835938 424.945312 338.289062 424.949219 C 339.585938 424.957031 340.796875 425.28125 341.921875 425.925781 C 345.042969 428.136719 348.417969 429.851562 352.042969 431.066406 C 355.667969 432.285156 359.394531 432.953125 363.214844 433.074219 C 370.496094 433.074219 374.691406 429.925781 374.691406 425.042969 L 374.691406 424.773438 C 374.691406 419.027344 366.824219 417.058594 358.164062 414.394531 C 347.25 411.242188 335.0625 406.820312 335.0625 392.664062 L 335.0625 392.378906 C 335.0625 378.347656 346.683594 369.828125 361.386719 369.828125 C 365.425781 369.902344 369.398438 370.453125 373.308594 371.472656 C 377.214844 372.496094 380.949219 373.964844 384.507812 375.875 C 385.113281 376.167969 385.667969 376.539062 386.167969 376.992188 C 386.667969 377.441406 387.097656 377.949219 387.457031 378.523438 C 387.816406 379.09375 388.089844 379.699219 388.277344 380.347656 C 388.464844 380.996094 388.5625 381.65625 388.5625 382.332031 C 388.566406 382.789062 388.523438 383.242188 388.4375 383.691406 C 388.347656 384.140625 388.21875 384.578125 388.042969 385 C 387.867188 385.421875 387.652344 385.824219 387.394531 386.203125 C 387.140625 386.585938 386.847656 386.933594 386.519531 387.253906 C 386.195312 387.574219 385.839844 387.859375 385.457031 388.109375 C 385.074219 388.359375 384.667969 388.570312 384.242188 388.738281 C 383.816406 388.90625 383.378906 389.027344 382.929688 389.109375 C 382.476562 389.1875 382.023438 389.222656 381.566406 389.210938 C 380.371094 389.230469 379.257812 388.949219 378.214844 388.359375 C 372.195312 385.210938 366.027344 383.308594 360.917969 383.308594 C 354.34375 383.308594 350.550781 386.457031 350.550781 390.597656 L 350.550781 390.882812 C 350.550781 396.351562 358.570312 398.597656 367.21875 401.402344 C 378.007812 404.800781 390.179688 409.667969 390.179688 422.988281 L 390.179688 423.273438 C 390.179688 438.832031 378.136719 446.535156 362.738281 446.535156 C 357.707031 446.5 352.789062 445.730469 347.988281 444.226562 C 343.1875 442.71875 338.707031 440.542969 334.554688 437.699219 Z M 396.578125 378.402344 C 396.566406 377.84375 396.609375 377.289062 396.707031 376.742188 C 396.808594 376.191406 396.960938 375.65625 397.164062 375.136719 C 397.371094 374.621094 397.625 374.125 397.929688 373.660156 C 398.234375 373.191406 398.582031 372.757812 398.972656 372.359375 C 399.363281 371.960938 399.789062 371.605469 400.25 371.292969 C 400.710938 370.980469 401.199219 370.714844 401.710938 370.5 C 402.226562 370.285156 402.757812 370.121094 403.304688 370.011719 C 403.851562 369.902344 404.402344 369.847656 404.960938 369.851562 C 405.519531 369.847656 406.078125 369.898438 406.628906 370.007812 C 407.179688 370.113281 407.714844 370.273438 408.234375 370.488281 C 408.753906 370.703125 409.25 370.964844 409.714844 371.277344 C 410.183594 371.585938 410.617188 371.941406 411.011719 372.339844 C 411.410156 372.738281 411.765625 373.171875 412.074219 373.640625 C 412.386719 374.105469 412.648438 374.601562 412.863281 375.121094 C 413.078125 375.640625 413.238281 376.175781 413.34375 376.730469 C 413.449219 377.28125 413.503906 377.839844 413.5 378.402344 L 413.5 383.535156 C 418.960938 375.820312 426.660156 369.644531 438.660156 369.644531 C 455.960938 369.644531 472.960938 383.378906 472.960938 408.066406 L 472.960938 408.351562 C 472.960938 432.878906 456.144531 446.757812 438.660156 446.757812 C 426.320312 446.757812 418.605469 440.585938 413.5 433.722656 L 413.5 459.855469 C 413.5 460.414062 413.445312 460.964844 413.335938 461.511719 C 413.226562 462.058594 413.066406 462.589844 412.855469 463.105469 C 412.640625 463.617188 412.378906 464.109375 412.070312 464.570312 C 411.761719 465.035156 411.410156 465.464844 411.015625 465.859375 C 410.625 466.25 410.195312 466.605469 409.730469 466.914062 C 409.269531 467.222656 408.78125 467.484375 408.265625 467.699219 C 407.753906 467.910156 407.222656 468.070312 406.675781 468.179688 C 406.128906 468.289062 405.578125 468.34375 405.023438 468.34375 C 404.464844 468.34375 403.914062 468.289062 403.367188 468.179688 C 402.824219 468.070312 402.292969 467.910156 401.777344 467.699219 C 401.265625 467.484375 400.777344 467.222656 400.3125 466.914062 C 399.851562 466.605469 399.421875 466.25 399.027344 465.859375 C 398.636719 465.464844 398.285156 465.035156 397.972656 464.570312 C 397.664062 464.109375 397.402344 463.617188 397.191406 463.105469 C 396.976562 462.589844 396.816406 462.058594 396.707031 461.511719 C 396.601562 460.964844 396.546875 460.414062 396.546875 459.855469 Z M 455.816406 408.320312 L 455.816406 408.035156 C 455.816406 393.738281 446.140625 384.417969 434.660156 384.417969 C 423.179688 384.417969 413.101562 393.992188 413.101562 408.035156 L 413.101562 408.320312 C 413.101562 422.492188 423.179688 431.941406 434.660156 431.941406 C 446.140625 431.941406 455.816406 422.902344 455.816406 408.277344 Z M 479.449219 378.417969 C 479.4375 377.859375 479.480469 377.304688 479.582031 376.753906 C 479.679688 376.203125 479.832031 375.667969 480.039062 375.148438 C 480.246094 374.632812 480.5 374.136719 480.804688 373.667969 C 481.109375 373.199219 481.457031 372.769531 481.847656 372.371094 C 482.238281 371.972656 482.667969 371.613281 483.128906 371.300781 C 483.589844 370.988281 484.078125 370.726562 484.59375 370.511719 C 485.109375 370.296875 485.640625 370.132812 486.1875 370.023438 C 486.734375 369.917969 487.289062 369.863281 487.847656 369.867188 C 488.410156 369.859375 488.964844 369.914062 489.515625 370.019531 C 490.070312 370.125 490.605469 370.285156 491.125 370.5 C 491.644531 370.710938 492.140625 370.976562 492.605469 371.285156 C 493.074219 371.597656 493.507812 371.953125 493.90625 372.351562 C 494.300781 372.75 494.65625 373.183594 494.96875 373.652344 C 495.277344 374.117188 495.542969 374.613281 495.753906 375.132812 C 495.96875 375.65625 496.128906 376.191406 496.234375 376.742188 C 496.339844 377.296875 496.390625 377.855469 496.386719 378.417969 L 496.386719 382.496094 C 497.234375 376.191406 507.597656 369.894531 515.007812 369.894531 C 515.570312 369.855469 516.128906 369.878906 516.683594 369.957031 C 517.242188 370.039062 517.785156 370.175781 518.3125 370.375 C 518.839844 370.570312 519.339844 370.824219 519.8125 371.128906 C 520.289062 371.433594 520.722656 371.785156 521.121094 372.183594 C 521.519531 372.582031 521.871094 373.019531 522.175781 373.492188 C 522.480469 373.964844 522.730469 374.46875 522.925781 374.996094 C 523.125 375.523438 523.261719 376.066406 523.34375 376.625 C 523.425781 377.183594 523.445312 377.742188 523.40625 378.304688 C 523.421875 378.789062 523.394531 379.265625 523.324219 379.742188 C 523.253906 380.21875 523.140625 380.6875 522.984375 381.144531 C 522.828125 381.601562 522.636719 382.039062 522.398438 382.460938 C 522.164062 382.878906 521.894531 383.277344 521.589844 383.648438 C 521.28125 384.019531 520.945312 384.363281 520.574219 384.671875 C 520.207031 384.980469 519.8125 385.257812 519.394531 385.496094 C 518.976562 385.734375 518.539062 385.933594 518.085938 386.09375 C 517.632812 386.253906 517.167969 386.371094 516.691406 386.445312 C 504.644531 388.539062 496.390625 399.042969 496.390625 413.703125 L 496.390625 438.109375 C 496.386719 438.664062 496.328125 439.214844 496.21875 439.761719 C 496.105469 440.308594 495.941406 440.835938 495.726562 441.351562 C 495.507812 441.863281 495.242188 442.351562 494.929688 442.8125 C 494.617188 443.273438 494.261719 443.699219 493.867188 444.089844 C 493.46875 444.480469 493.039062 444.828125 492.574219 445.132812 C 492.105469 445.441406 491.617188 445.695312 491.101562 445.90625 C 490.582031 446.113281 490.050781 446.269531 489.503906 446.371094 C 488.957031 446.472656 488.40625 446.523438 487.851562 446.515625 C 487.296875 446.519531 486.75 446.46875 486.207031 446.367188 C 485.664062 446.261719 485.136719 446.101562 484.625 445.894531 C 484.113281 445.683594 483.628906 445.425781 483.167969 445.117188 C 482.710938 444.8125 482.285156 444.464844 481.894531 444.070312 C 481.503906 443.679688 481.152344 443.253906 480.847656 442.792969 C 480.542969 442.332031 480.285156 441.847656 480.074219 441.335938 C 479.863281 440.824219 479.707031 440.296875 479.601562 439.753906 C 479.496094 439.210938 479.449219 438.660156 479.453125 438.109375 Z M 529.820312 378.453125 C 529.808594 377.894531 529.855469 377.339844 529.953125 376.792969 C 530.054688 376.242188 530.207031 375.707031 530.414062 375.191406 C 530.621094 374.671875 530.875 374.175781 531.179688 373.710938 C 531.484375 373.242188 531.832031 372.808594 532.222656 372.410156 C 532.613281 372.011719 533.042969 371.65625 533.503906 371.34375 C 533.964844 371.03125 534.453125 370.765625 534.96875 370.550781 C 535.484375 370.335938 536.015625 370.175781 536.5625 370.066406 C 537.109375 369.957031 537.660156 369.902344 538.21875 369.902344 C 538.78125 369.898438 539.335938 369.953125 539.886719 370.058594 C 540.4375 370.164062 540.972656 370.328125 541.492188 370.539062 C 542.011719 370.753906 542.507812 371.015625 542.972656 371.328125 C 543.441406 371.640625 543.875 371.996094 544.269531 372.390625 C 544.667969 372.789062 545.023438 373.222656 545.335938 373.691406 C 545.644531 374.160156 545.90625 374.652344 546.121094 375.171875 C 546.335938 375.695312 546.496094 376.230469 546.601562 376.78125 C 546.710938 377.335938 546.761719 377.890625 546.757812 378.453125 L 546.757812 438.160156 C 546.738281 438.703125 546.664062 439.238281 546.542969 439.769531 C 546.417969 440.296875 546.246094 440.8125 546.023438 441.308594 C 545.800781 441.804688 545.535156 442.273438 545.222656 442.71875 C 544.910156 443.164062 544.558594 443.574219 544.167969 443.949219 C 543.773438 444.328125 543.351562 444.664062 542.894531 444.957031 C 542.441406 445.253906 541.960938 445.503906 541.457031 445.707031 C 540.953125 445.910156 540.4375 446.0625 539.902344 446.167969 C 539.371094 446.269531 538.832031 446.324219 538.289062 446.324219 C 537.746094 446.324219 537.207031 446.269531 536.675781 446.167969 C 536.140625 446.0625 535.625 445.910156 535.121094 445.707031 C 534.617188 445.503906 534.136719 445.253906 533.679688 444.957031 C 533.226562 444.664062 532.800781 444.328125 532.410156 443.949219 C 532.019531 443.574219 531.667969 443.164062 531.355469 442.71875 C 531.042969 442.273438 530.777344 441.804688 530.554688 441.308594 C 530.332031 440.8125 530.160156 440.296875 530.035156 439.769531 C 529.914062 439.238281 529.839844 438.703125 529.820312 438.160156 Z M 555.3125 378.484375 C 555.300781 377.925781 555.347656 377.371094 555.445312 376.820312 C 555.542969 376.273438 555.695312 375.738281 555.902344 375.21875 C 556.109375 374.699219 556.363281 374.207031 556.667969 373.738281 C 556.972656 373.269531 557.320312 372.835938 557.714844 372.4375 C 558.105469 372.039062 558.53125 371.683594 558.992188 371.371094 C 559.457031 371.058594 559.945312 370.792969 560.460938 370.578125 C 560.976562 370.363281 561.507812 370.203125 562.054688 370.09375 C 562.601562 369.984375 563.152344 369.929688 563.710938 369.933594 C 564.273438 369.929688 564.832031 369.980469 565.382812 370.089844 C 565.933594 370.195312 566.46875 370.355469 566.988281 370.570312 C 567.507812 370.785156 568 371.046875 568.46875 371.359375 C 568.9375 371.671875 569.367188 372.027344 569.765625 372.421875 C 570.164062 372.820312 570.515625 373.253906 570.828125 373.722656 C 571.140625 374.191406 571.402344 374.683594 571.617188 375.203125 C 571.828125 375.726562 571.988281 376.261719 572.097656 376.8125 C 572.203125 377.363281 572.253906 377.921875 572.253906 378.484375 L 572.253906 381.964844 C 572.867188 381.003906 573.539062 380.089844 574.273438 379.21875 C 575.003906 378.347656 575.792969 377.527344 576.632812 376.757812 C 577.472656 375.988281 578.355469 375.277344 579.289062 374.625 C 580.222656 373.96875 581.191406 373.378906 582.199219 372.855469 C 583.210938 372.328125 584.246094 371.867188 585.316406 371.476562 C 586.386719 371.085938 587.476562 370.765625 588.585938 370.515625 C 589.695312 370.265625 590.816406 370.089844 591.949219 369.988281 C 593.082031 369.886719 594.21875 369.855469 595.355469 369.902344 C 612.007812 369.902344 621.683594 381.117188 621.683594 398.246094 L 621.683594 438.117188 C 621.691406 438.671875 621.644531 439.222656 621.546875 439.765625 C 621.445312 440.3125 621.289062 440.84375 621.082031 441.355469 C 620.875 441.871094 620.617188 442.359375 620.3125 442.824219 C 620.007812 443.285156 619.65625 443.714844 619.265625 444.105469 C 618.875 444.5 618.445312 444.847656 617.984375 445.152344 C 617.523438 445.460938 617.035156 445.71875 616.519531 445.925781 C 616.007812 446.132812 615.476562 446.289062 614.933594 446.386719 C 614.386719 446.488281 613.839844 446.535156 613.285156 446.527344 C 612.722656 446.539062 612.167969 446.5 611.617188 446.402344 C 611.0625 446.304688 610.527344 446.15625 610.003906 445.949219 C 609.484375 445.746094 608.988281 445.488281 608.515625 445.1875 C 608.046875 444.882812 607.609375 444.53125 607.207031 444.140625 C 606.808594 443.75 606.449219 443.320312 606.132812 442.855469 C 605.820312 442.394531 605.554688 441.902344 605.335938 441.386719 C 605.117188 440.867188 604.957031 440.332031 604.84375 439.785156 C 604.734375 439.234375 604.679688 438.679688 604.683594 438.117188 L 604.683594 403.46875 C 604.683594 391.976562 598.945312 385.375 588.859375 385.375 C 579.0625 385.375 572.207031 392.253906 572.207031 403.75 L 572.207031 438.109375 C 572.183594 438.652344 572.113281 439.1875 571.988281 439.714844 C 571.867188 440.246094 571.691406 440.757812 571.472656 441.253906 C 571.25 441.75 570.980469 442.222656 570.667969 442.664062 C 570.355469 443.109375 570.003906 443.519531 569.613281 443.898438 C 569.222656 444.273438 568.800781 444.609375 568.34375 444.90625 C 567.886719 445.203125 567.410156 445.453125 566.90625 445.65625 C 566.402344 445.859375 565.882812 446.011719 565.351562 446.113281 C 564.816406 446.21875 564.28125 446.269531 563.738281 446.269531 C 563.195312 446.269531 562.65625 446.21875 562.121094 446.113281 C 561.589844 446.011719 561.070312 445.859375 560.566406 445.65625 C 560.066406 445.453125 559.585938 445.203125 559.128906 444.90625 C 558.671875 444.609375 558.25 444.273438 557.859375 443.898438 C 557.46875 443.519531 557.117188 443.109375 556.804688 442.664062 C 556.492188 442.222656 556.222656 441.75 556.003906 441.253906 C 555.78125 440.757812 555.609375 440.246094 555.484375 439.714844 C 555.359375 439.1875 555.289062 438.652344 555.265625 438.109375 Z M 696.160156 369.710938 C 695.597656 369.707031 695.039062 369.761719 694.488281 369.867188 C 693.9375 369.972656 693.402344 370.136719 692.882812 370.347656 C 692.363281 370.5625 691.871094 370.824219 691.402344 371.136719 C 690.933594 371.449219 690.503906 371.804688 690.105469 372.199219 C 689.707031 372.597656 689.355469 373.03125 689.042969 373.5 C 688.730469 373.96875 688.46875 374.460938 688.253906 374.980469 C 688.042969 375.503906 687.882812 376.039062 687.773438 376.589844 C 687.667969 377.144531 687.617188 377.699219 687.617188 378.261719 L 687.617188 383.296875 C 682.15625 375.582031 674.457031 369.394531 662.453125 369.394531 C 645.15625 369.394531 628.140625 383.128906 628.140625 407.800781 L 628.140625 408.085938 C 628.09375 432.636719 644.90625 446.492188 662.410156 446.492188 C 674.65625 446.492188 682.347656 440.398438 687.570312 433.5625 C 686.722656 446.898438 678.574219 453.941406 664.273438 453.941406 C 660.292969 453.980469 656.375 453.503906 652.515625 452.507812 C 648.660156 451.511719 645 450.03125 641.53125 448.066406 C 640.566406 447.589844 639.542969 447.359375 638.464844 447.375 C 638.003906 447.375 637.546875 447.417969 637.089844 447.507812 C 636.636719 447.597656 636.195312 447.730469 635.765625 447.902344 C 635.339844 448.078125 634.929688 448.292969 634.542969 448.546875 C 634.15625 448.800781 633.796875 449.089844 633.46875 449.410156 C 633.136719 449.734375 632.839844 450.089844 632.578125 450.46875 C 632.3125 450.851562 632.089844 451.253906 631.90625 451.679688 C 631.71875 452.101562 631.578125 452.539062 631.476562 452.992188 C 631.378906 453.445312 631.324219 453.902344 631.3125 454.367188 C 631.296875 455.105469 631.394531 455.832031 631.609375 456.539062 C 631.824219 457.246094 632.144531 457.902344 632.566406 458.511719 C 632.992188 459.117188 633.5 459.640625 634.089844 460.085938 C 634.683594 460.527344 635.328125 460.871094 636.027344 461.105469 C 640.46875 463.300781 645.101562 464.957031 649.925781 466.070312 C 654.75 467.183594 659.636719 467.730469 664.585938 467.707031 C 677.890625 467.707031 688.25 464.554688 694.988281 457.757812 C 701.136719 451.585938 704.421875 442.3125 704.421875 429.855469 L 704.421875 378.226562 C 704.433594 377.675781 704.386719 377.125 704.289062 376.582031 C 704.191406 376.039062 704.042969 375.507812 703.839844 374.992188 C 703.636719 374.480469 703.386719 373.988281 703.085938 373.523438 C 702.789062 373.058594 702.445312 372.628906 702.0625 372.230469 C 701.675781 371.832031 701.257812 371.476562 700.804688 371.164062 C 700.347656 370.847656 699.867188 370.582031 699.359375 370.363281 C 698.851562 370.144531 698.328125 369.976562 697.789062 369.859375 C 697.25 369.746094 696.703125 369.683594 696.148438 369.675781 Z M 666.46875 431.832031 C 654.847656 431.832031 645.335938 422.714844 645.335938 408.136719 L 645.335938 407.851562 C 645.335938 393.554688 654.992188 384.230469 666.46875 384.230469 C 677.945312 384.230469 688.027344 393.691406 688.027344 407.851562 L 688.027344 408.136719 C 688.027344 422.289062 677.964844 431.832031 666.46875 431.832031 Z M 666.46875 431.832031 " fill-opacity="1" fill-rule="nonzero"/></g><path fill="#68bd45" d="M 546.835938 349.460938 C 546.835938 350.023438 546.78125 350.578125 546.671875 351.128906 C 546.5625 351.679688 546.398438 352.214844 546.183594 352.734375 C 545.96875 353.253906 545.707031 353.746094 545.394531 354.210938 C 545.085938 354.679688 544.730469 355.109375 544.332031 355.507812 C 543.9375 355.90625 543.507812 356.257812 543.039062 356.570312 C 542.574219 356.882812 542.082031 357.144531 541.5625 357.359375 C 541.046875 357.574219 540.511719 357.738281 539.960938 357.847656 C 539.410156 357.957031 538.855469 358.011719 538.296875 358.011719 C 537.734375 358.011719 537.179688 357.957031 536.628906 357.847656 C 536.078125 357.738281 535.542969 357.574219 535.027344 357.359375 C 534.507812 357.144531 534.015625 356.882812 533.550781 356.570312 C 533.085938 356.257812 532.652344 355.90625 532.257812 355.507812 C 531.859375 355.109375 531.503906 354.679688 531.195312 354.210938 C 530.882812 353.746094 530.621094 353.253906 530.40625 352.734375 C 530.191406 352.214844 530.027344 351.679688 529.917969 351.128906 C 529.808594 350.578125 529.753906 350.023438 529.753906 349.460938 C 529.753906 348.898438 529.808594 348.34375 529.917969 347.792969 C 530.027344 347.242188 530.191406 346.707031 530.40625 346.1875 C 530.621094 345.667969 530.882812 345.175781 531.195312 344.710938 C 531.503906 344.242188 531.859375 343.8125 532.257812 343.414062 C 532.652344 343.015625 533.085938 342.664062 533.550781 342.351562 C 534.015625 342.039062 534.507812 341.777344 535.027344 341.5625 C 535.542969 341.347656 536.078125 341.183594 536.628906 341.074219 C 537.179688 340.964844 537.734375 340.910156 538.296875 340.910156 C 538.855469 340.910156 539.410156 340.964844 539.960938 341.074219 C 540.511719 341.183594 541.046875 341.347656 541.5625 341.5625 C 542.082031 341.777344 542.574219 342.039062 543.039062 342.351562 C 543.507812 342.664062 543.9375 343.015625 544.332031 343.414062 C 544.730469 343.8125 545.085938 344.242188 545.394531 344.710938 C 545.707031 345.175781 545.96875 345.667969 546.183594 346.1875 C 546.398438 346.707031 546.5625 347.242188 546.671875 347.792969 C 546.78125 348.34375 546.835938 348.898438 546.835938 349.460938 Z M 546.835938 349.460938 " fill-opacity="1" fill-rule="nonzero"/></svg>