<svg xmlns="http://www.w3.org/2000/svg" xmlns:xlink="http://www.w3.org/1999/xlink" width="1080" zoomAndPan="magnify" viewBox="0 0 810 809.999993" height="1080" preserveAspectRatio="xMidYMid meet" version="1.0"><defs><clipPath id="9ccf1ecdf5"><path d="M 81 210.195312 L 729 210.195312 L 729 599.445312 L 81 599.445312 Z M 81 210.195312 " clip-rule="nonzero"/></clipPath></defs><g clip-path="url(#9ccf1ecdf5)"><path fill="#00bf63" d="M 405.011719 210.484375 C 318.492188 210.484375 264.703125 253.582031 242.996094 340.097656 C 275.398438 297 313.308594 280.796875 356.40625 291.492188 C 381.03125 297.648438 398.851562 315.46875 418.292969 335.234375 C 450.046875 367.636719 486.019531 404.898438 567.023438 404.898438 C 653.539062 404.898438 707.328125 361.804688 729.039062 275.289062 C 696.636719 318.386719 658.722656 334.585938 615.628906 323.894531 C 591 317.738281 573.503906 299.917969 553.738281 280.152344 C 521.984375 247.746094 486.019531 210.484375 405.011719 210.484375 Z M 242.996094 404.898438 C 156.480469 404.898438 102.691406 447.996094 80.980469 534.515625 C 113.382812 491.417969 151.292969 475.21875 194.390625 485.90625 C 219.015625 492.066406 236.515625 509.886719 256.28125 529.652344 C 288.035156 562.054688 324.003906 599.316406 405.011719 599.316406 C 491.523438 599.316406 545.316406 556.222656 567.023438 469.707031 C 534.621094 512.804688 496.707031 529.003906 453.613281 518.3125 C 428.988281 512.15625 411.492188 494.335938 391.726562 474.570312 C 359.96875 442.164062 324.003906 404.898438 242.996094 404.898438 Z M 242.996094 404.898438 " fill-opacity="1" fill-rule="nonzero"/></g></svg>