<svg xmlns="http://www.w3.org/2000/svg" xmlns:xlink="http://www.w3.org/1999/xlink" width="1080" zoomAndPan="magnify" viewBox="0 0 810 809.999993" height="1080" preserveAspectRatio="xMidYMid meet" version="1.0"><defs><clipPath id="8b85117f7b"><path d="M 81 81 L 729 81 L 729 729 L 81 729 Z M 81 81 " clip-rule="nonzero"/></clipPath><clipPath id="f5aa25d921"><path d="M 81 156 L 81 654 C 81 695.421875 114.578125 729 156 729 L 654 729 C 695.421875 729 729 695.421875 729 654 L 729 156 C 729 114.578125 695.421875 81 654 81 L 156 81 C 114.578125 81 81 114.578125 81 156 Z M 81 156 " clip-rule="nonzero"/></clipPath><clipPath id="abdd1752b4"><path d="M 224 380 L 453 380 L 453 674 L 224 674 Z M 224 380 " clip-rule="nonzero"/></clipPath><clipPath id="b1f3b53f1d"><path d="M 81 156 L 81 654 C 81 695.421875 114.578125 729 156 729 L 654 729 C 695.421875 729 729 695.421875 729 654 L 729 156 C 729 114.578125 695.421875 81 654 81 L 156 81 C 114.578125 81 81 114.578125 81 156 Z M 81 156 " clip-rule="nonzero"/></clipPath><clipPath id="541ff81e21"><path d="M 468 377 L 679 377 L 679 677 L 468 677 Z M 468 377 " clip-rule="nonzero"/></clipPath><clipPath id="e00245a1d6"><path d="M 81 156 L 81 654 C 81 695.421875 114.578125 729 156 729 L 654 729 C 695.421875 729 729 695.421875 729 654 L 729 156 C 729 114.578125 695.421875 81 654 81 L 156 81 C 114.578125 81 81 114.578125 81 156 Z M 81 156 " clip-rule="nonzero"/></clipPath></defs><g clip-path="url(#8b85117f7b)"><g clip-path="url(#f5aa25d921)"><path fill="#007acc" d="M 81 729 L 729 729 L 729 81 L 81 81 Z M 81 729 " fill-opacity="1" fill-rule="nonzero"/></g></g><g clip-path="url(#abdd1752b4)"><g clip-path="url(#b1f3b53f1d)"><path fill="#ffffff" d="M 224.269531 407.125 L 224.066406 433.679688 L 308.40625 433.679688 L 308.40625 673.335938 L 368.066406 673.335938 L 368.066406 433.679688 L 452.410156 433.679688 L 452.410156 407.65625 C 452.410156 393.253906 452.101562 381.207031 451.691406 380.902344 C 451.382812 380.496094 400.054688 380.296875 337.820312 380.394531 L 224.574219 380.699219 Z M 224.269531 407.125 " fill-opacity="1" fill-rule="nonzero"/></g></g><g clip-path="url(#541ff81e21)"><g clip-path="url(#e00245a1d6)"><path fill="#ffffff" d="M 603.878906 379.964844 C 620.332031 384.066406 632.886719 391.382812 644.40625 403.304688 C 650.355469 409.683594 659.214844 421.300781 659.921875 424.085938 C 660.125 424.921875 631.953125 443.828125 614.867188 454.433594 C 614.257812 454.839844 611.804688 452.15625 609.019531 448.054688 C 600.691406 435.90625 591.933594 430.667969 578.566406 429.753906 C 558.925781 428.414062 546.269531 438.691406 546.371094 455.878906 C 546.371094 460.914062 547.105469 463.902344 549.15625 468.003906 C 553.484375 476.964844 561.507812 482.304688 586.691406 493.214844 C 633.089844 513.160156 652.9375 526.324219 665.289062 545.054688 C 679.058594 565.9375 682.148438 599.25 672.78125 624.027344 C 662.503906 650.988281 636.988281 669.289062 601.097656 675.363281 C 589.984375 677.3125 563.660156 677.007812 551.710938 674.855469 C 525.691406 670.222656 501.011719 657.367188 485.796875 640.507812 C 479.824219 633.925781 468.207031 616.738281 468.914062 615.5 C 469.242188 615.09375 471.902344 613.449219 474.886719 611.703125 C 477.773438 610.054688 488.683594 603.777344 498.960938 597.804688 L 517.566406 587.023438 L 521.488281 592.769531 C 526.929688 601.097656 538.878906 612.511719 546.066406 616.335938 C 566.746094 627.21875 595.121094 625.675781 609.121094 613.144531 C 615.09375 607.675781 617.550781 602.03125 617.550781 593.703125 C 617.550781 586.1875 616.636719 582.894531 612.714844 577.25 C 607.675781 570.039062 597.402344 563.960938 568.191406 551.332031 C 534.753906 536.929688 520.347656 527.96875 507.1875 513.769531 C 499.566406 505.542969 492.378906 492.378906 489.390625 481.367188 C 486.910156 472.230469 486.304688 449.296875 488.253906 440.03125 C 495.164062 407.734375 519.539062 385.207031 554.699219 378.523438 C 566.113281 376.371094 592.667969 377.179688 603.878906 379.964844 Z M 603.878906 379.964844 " fill-opacity="1" fill-rule="nonzero"/></g></g></svg>