<svg xmlns="http://www.w3.org/2000/svg" xmlns:xlink="http://www.w3.org/1999/xlink" width="500" zoomAndPan="magnify" viewBox="0 0 375 374.999991" height="500" preserveAspectRatio="xMidYMid meet" version="1.0"><defs><clipPath id="c62ed6afa7"><path d="M 229 182 L 366 182 L 366 325 L 229 325 Z M 229 182 " clip-rule="nonzero"/></clipPath><clipPath id="cae080a2d6"><path d="M 252.296875 333.78125 L 220.578125 303.917969 L 343.292969 173.578125 L 375.007812 203.441406 Z M 252.296875 333.78125 " clip-rule="nonzero"/></clipPath><clipPath id="d74fff710d"><path d="M 236.4375 318.851562 C 232.230469 314.890625 229.769531 309.421875 229.597656 303.648438 C 229.421875 297.875 231.550781 292.265625 235.507812 288.0625 L 328.34375 189.453125 C 332.304688 185.25 337.773438 182.789062 343.546875 182.613281 C 349.324219 182.441406 354.929688 184.566406 359.136719 188.527344 C 363.339844 192.488281 365.800781 197.953125 365.976562 203.730469 C 366.148438 209.503906 364.023438 215.109375 360.0625 219.316406 L 267.226562 317.921875 C 263.265625 322.128906 257.796875 324.589844 252.023438 324.761719 C 246.25 324.9375 240.644531 322.808594 236.4375 318.851562 Z M 236.4375 318.851562 " clip-rule="nonzero"/></clipPath><clipPath id="5b9b7af8ad"><path d="M 137 9 L 366 9 L 366 226 L 137 226 Z M 137 9 " clip-rule="nonzero"/></clipPath><clipPath id="b7532df238"><path d="M 374.992188 202.363281 L 345.238281 234.1875 L 128.710938 31.734375 L 158.460938 -0.0859375 Z M 374.992188 202.363281 " clip-rule="nonzero"/></clipPath><clipPath id="fa3c956527"><path d="M 360.117188 218.273438 C 356.171875 222.496094 350.710938 224.972656 344.9375 225.167969 C 339.164062 225.363281 333.550781 223.253906 329.328125 219.308594 L 144.710938 46.695312 C 140.492188 42.75 138.011719 37.289062 137.820312 31.515625 C 137.625 25.742188 139.730469 20.128906 143.675781 15.910156 C 147.621094 11.691406 153.082031 9.210938 158.855469 9.015625 C 164.628906 8.824219 170.242188 10.929688 174.464844 14.875 L 359.082031 187.488281 C 363.300781 191.433594 365.78125 196.894531 365.976562 202.667969 C 366.167969 208.441406 364.0625 214.054688 360.117188 218.273438 Z M 360.117188 218.273438 " clip-rule="nonzero"/></clipPath><clipPath id="48cec56365"><path d="M 185 189 L 274 189 L 274 279 L 185 279 Z M 185 189 " clip-rule="nonzero"/></clipPath><clipPath id="437e92d478"><path d="M 207.890625 288.011719 L 176.453125 257.855469 L 250.902344 180.246094 L 282.339844 210.402344 Z M 207.890625 288.011719 " clip-rule="nonzero"/></clipPath><clipPath id="9b63e9408b"><path d="M 192.171875 272.933594 C 188.003906 268.9375 185.59375 263.445312 185.472656 257.667969 C 185.355469 251.894531 187.53125 246.308594 191.53125 242.136719 L 235.746094 196.046875 C 239.742188 191.878906 245.234375 189.46875 251.011719 189.347656 C 256.785156 189.226562 262.371094 191.40625 266.542969 195.40625 C 270.710938 199.40625 273.121094 204.894531 273.242188 210.671875 C 273.359375 216.445312 271.179688 222.035156 267.183594 226.203125 L 222.96875 272.292969 C 218.972656 276.464844 213.480469 278.875 207.703125 278.992188 C 201.929688 279.113281 196.339844 276.933594 192.171875 272.933594 Z M 192.171875 272.933594 " clip-rule="nonzero"/></clipPath><clipPath id="2ca0fe7451"><path d="M 103 157 L 230 157 L 230 279 L 103 279 Z M 103 157 " clip-rule="nonzero"/></clipPath><clipPath id="5cc2bad71a"><path d="M 239.078125 255.292969 L 208.4375 288.023438 L 93.75 180.671875 L 124.386719 147.941406 Z M 239.078125 255.292969 " clip-rule="nonzero"/></clipPath><clipPath id="73ae446d5c"><path d="M 223.757812 271.660156 C 215.296875 280.695312 201.113281 281.164062 192.074219 272.707031 L 110.183594 196.054688 C 101.144531 187.59375 100.675781 173.410156 109.136719 164.371094 C 117.597656 155.332031 131.78125 154.863281 140.820312 163.324219 L 222.710938 239.972656 C 231.75 248.433594 232.21875 262.621094 223.757812 271.660156 Z M 223.757812 271.660156 " clip-rule="nonzero"/></clipPath><clipPath id="9af013c2b1"><path d="M 103 70 L 230 70 L 230 192 L 103 192 Z M 103 70 " clip-rule="nonzero"/></clipPath><clipPath id="d699821fff"><path d="M 93.832031 93.589844 L 124.421875 60.8125 L 239.140625 167.875 L 208.554688 200.652344 Z M 93.832031 93.589844 " clip-rule="nonzero"/></clipPath><clipPath id="53391bc049"><path d="M 109.128906 77.203125 C 117.574219 68.152344 131.757812 67.660156 140.808594 76.109375 L 222.703125 152.53125 C 231.753906 160.980469 232.242188 175.164062 223.796875 184.214844 C 215.351562 193.265625 201.164062 193.757812 192.113281 185.308594 L 110.222656 108.886719 C 101.171875 100.4375 100.679688 86.253906 109.128906 77.203125 Z M 109.128906 77.203125 " clip-rule="nonzero"/></clipPath><clipPath id="d9adc370c5"><path d="M 9 65 L 143 65 L 143 203 L 9 203 Z M 9 65 " clip-rule="nonzero"/></clipPath><clipPath id="ffadcdf328"><path d="M 119.933594 56.566406 L 151.371094 86.722656 L 31.335938 211.863281 L -0.101562 181.707031 Z M 119.933594 56.566406 " clip-rule="nonzero"/></clipPath><clipPath id="bcb47ef080"><path d="M 135.652344 71.644531 C 139.820312 75.644531 142.230469 81.136719 142.351562 86.910156 C 142.472656 92.6875 140.292969 98.273438 136.292969 102.441406 L 46.507812 196.042969 C 42.511719 200.210938 37.019531 202.621094 31.242188 202.742188 C 25.46875 202.863281 19.882812 200.683594 15.710938 196.683594 C 11.542969 192.6875 9.132812 187.195312 9.011719 181.417969 C 8.894531 175.644531 11.070312 170.054688 15.070312 165.886719 L 104.855469 72.285156 C 108.855469 68.117188 114.347656 65.707031 120.121094 65.589844 C 125.898438 65.46875 131.484375 67.648438 135.652344 71.644531 Z M 135.652344 71.644531 " clip-rule="nonzero"/></clipPath><clipPath id="7846e4cb88"><path d="M 9 161 L 230 161 L 230 370 L 9 370 Z M 9 161 " clip-rule="nonzero"/></clipPath><clipPath id="ab7f9a7a38"><path d="M 239.078125 346.074219 L 208.5625 378.917969 L 0.199219 185.335938 L 30.714844 152.492188 Z M 239.078125 346.074219 " clip-rule="nonzero"/></clipPath><clipPath id="41231e29f2"><path d="M 223.820312 362.496094 C 215.394531 371.566406 201.210938 372.085938 192.140625 363.660156 L 16.75 200.710938 C 7.679688 192.285156 7.160156 178.101562 15.585938 169.03125 C 24.011719 159.960938 38.195312 159.441406 47.265625 167.867188 L 222.65625 330.816406 C 231.726562 339.242188 232.246094 353.425781 223.820312 362.496094 Z M 223.820312 362.496094 " clip-rule="nonzero"/></clipPath></defs><g clip-path="url(#c62ed6afa7)"><g clip-path="url(#cae080a2d6)"><g clip-path="url(#d74fff710d)"><path fill="#5e17eb" d="M 252.296875 333.78125 L 220.578125 303.917969 L 343.292969 173.578125 L 375.007812 203.441406 Z M 252.296875 333.78125 " fill-opacity="1" fill-rule="nonzero"/></g></g></g><g clip-path="url(#5b9b7af8ad)"><g clip-path="url(#b7532df238)"><g clip-path="url(#fa3c956527)"><path fill="#5e17eb" d="M 374.992188 202.363281 L 345.238281 234.1875 L 128.832031 31.851562 L 158.585938 0.0273438 Z M 374.992188 202.363281 " fill-opacity="1" fill-rule="nonzero"/></g></g></g><g clip-path="url(#48cec56365)"><g clip-path="url(#437e92d478)"><g clip-path="url(#9b63e9408b)"><path fill="#5e17eb" d="M 207.890625 288.011719 L 176.453125 257.855469 L 250.785156 180.367188 L 282.222656 210.523438 Z M 207.890625 288.011719 " fill-opacity="1" fill-rule="nonzero"/></g></g></g><g clip-path="url(#2ca0fe7451)"><g clip-path="url(#5cc2bad71a)"><g clip-path="url(#73ae446d5c)"><path fill="#5e17eb" d="M 239.078125 255.292969 L 208.4375 288.023438 L 93.878906 180.792969 L 124.515625 148.0625 Z M 239.078125 255.292969 " fill-opacity="1" fill-rule="nonzero"/></g></g></g><g clip-path="url(#9af013c2b1)"><g clip-path="url(#d699821fff)"><g clip-path="url(#53391bc049)"><path fill="#5e17eb" d="M 93.832031 93.589844 L 124.421875 60.8125 L 239.140625 167.875 L 208.554688 200.652344 Z M 93.832031 93.589844 " fill-opacity="1" fill-rule="nonzero"/></g></g></g><g clip-path="url(#d9adc370c5)"><g clip-path="url(#ffadcdf328)"><g clip-path="url(#bcb47ef080)"><path fill="#5e17eb" d="M 119.933594 56.566406 L 151.371094 86.722656 L 31.453125 211.738281 L 0.015625 181.582031 Z M 119.933594 56.566406 " fill-opacity="1" fill-rule="nonzero"/></g></g></g><g clip-path="url(#7846e4cb88)"><g clip-path="url(#ab7f9a7a38)"><g clip-path="url(#41231e29f2)"><path fill="#5e17eb" d="M 239.078125 346.074219 L 208.5625 378.917969 L 0.328125 185.457031 L 30.84375 152.609375 Z M 239.078125 346.074219 " fill-opacity="1" fill-rule="nonzero"/></g></g></g></svg>